<?xml version="1.0" standalone="no"?>
<!DOCTYPE svg PUBLIC "-//W3C//DTD SVG 1.1//EN" "http://www.w3.org/Graphics/SVG/1.1/DTD/svg11.dtd" >
<svg xmlns="http://www.w3.org/2000/svg" xmlns:xlink="http://www.w3.org/1999/xlink" version="1.1">
<metadata>
Created by FontForge 20201107 at Wed Aug 24 22:30:29 2022
 By Unknown
Copyright (c) 2019, Kaiky Fernandez (http://be.net/fernandezkaiky | contato@kaikyfernandez.com.br),
whit reserved font name Liturgica.


</metadata>
<defs>
<font id="Liturgica-Medium" horiz-adv-x="1041" >
  <font-face 
    font-family="Liturgica"
    font-weight="500"
    font-stretch="normal"
    units-per-em="1000"
    panose-1="2 0 6 3 0 0 0 0 0 0"
    ascent="800"
    descent="-200"
    x-height="686"
    cap-height="613"
    bbox="43 -201 1070 800"
    underline-thickness="50"
    underline-position="-150"
    stemh="31"
    stemv="31"
    unicode-range="U+0020-0097"
  />
<missing-glyph horiz-adv-x="1000" 
d="M50 0v533h900v-533h-900zM100 50h800v433h-800v-433z" />
    <glyph glyph-name=".notdef" horiz-adv-x="1000" 
d="M50 0v533h900v-533h-900zM100 50h800v433h-800v-433z" />
    <glyph glyph-name="space" unicode=" " horiz-adv-x="1000" 
 />
    <glyph glyph-name="zero" unicode="0" horiz-adv-x="470" 
d="M232 -99c-51 0 -92 41 -92 92s41 92 92 92c50 0 92 -41 92 -92s-42 -92 -92 -92zM232 54c-33 0 -61 -28 -61 -61v0c0 -33 28 -61 61 -61s61 28 61 61s-28 61 -61 61zM343 -7c0 9 7 15 16 15h51c8 0 15 -6 15 -15s-7 -15 -15 -15h-51v0c-9 0 -16 6 -16 15zM312 -87
c2 2 7 4 11 4c3 0 8 -2 11 -4l36 -36c2 -2 4 -7 4 -11c0 -8 -7 -15 -15 -15c-4 0 -9 2 -11 4l-36 36c-3 3 -5 7 -5 11s2 8 5 11zM217 -134c0 9 6 16 15 16s15 -7 15 -16v-51c0 -8 -6 -15 -15 -15s-15 7 -15 15v51zM323 69c-9 0 -16 7 -16 15c0 4 2 8 5 11l36 36
c2 2 7 4 10 4c9 0 16 -7 16 -15c0 -4 -2 -9 -5 -11l-35 -36c-3 -2 -8 -4 -11 -4zM145 -87c3 3 8 6 12 6c9 0 16 -7 16 -16c0 -4 -3 -9 -6 -12l-36 -36c-2 -2 -7 -4 -11 -4c-8 0 -15 7 -15 15c0 4 2 9 4 11zM126 -7c0 -9 -7 -15 -16 -15v0h-51c-8 0 -15 7 -15 15
c0 9 7 15 15 15h51c9 0 16 -6 16 -15v0zM135 73l-36 36c-3 2 -5 7 -5 11c0 8 7 15 16 15c3 0 8 -2 11 -4l36 -36c2 -3 4 -7 4 -11c0 -9 -7 -15 -15 -15c-4 0 -9 2 -11 4zM230 104c-9 0 -16 7 -16 16v51c0 8 7 15 16 15c8 0 15 -7 15 -15v-51c0 -9 -7 -16 -15 -16z" />
    <glyph glyph-name="one" unicode="1" horiz-adv-x="394" 
d="M331 200c8 0 15 -7 15 -16v-67c0 -8 -7 -15 -15 -15h-85v-287c0 -8 -7 -15 -16 -15h-67c-8 0 -15 7 -15 15v287h-86c-8 0 -15 7 -15 15v67c0 9 7 16 15 16h86v85c0 9 7 16 15 16h67c9 0 16 -7 16 -16v-85h85zM315 133v36h-85v0c-8 0 -15 7 -15 15v86h-36v-86
c-1 -8 -7 -15 -16 -15v0h-85v-36h85c9 0 16 -7 16 -16v-286h36v286c0 9 7 16 15 16v0h85z" />
    <glyph glyph-name="two" unicode="2" horiz-adv-x="298" 
d="M239 40c8 0 15 -7 15 -15c0 -9 -7 -16 -15 -16h-74v-193c0 -9 -7 -16 -16 -16c-8 0 -15 7 -15 16v193h-74c-9 0 -16 7 -16 16c0 8 7 15 16 15h74v75c0 8 7 15 15 15c9 0 16 -7 16 -15v-75h74z" />
    <glyph glyph-name="three" unicode="3" horiz-adv-x="618" 
d="M191 -121c-65 56 -142 146 -142 257c0 73 69 144 138 144c51 0 101 -38 122 -58c22 20 71 58 123 58c1 0 137 -1 137 -144c0 -83 -44 -167 -127 -244c-32 -29 -88 -69 -126 -90c-1 -1 -5 -2 -7 -2s-5 1 -7 2c-33 18 -83 53 -111 77zM187 249c-53 0 -107 -57 -107 -113
c0 -99 71 -182 131 -233c26 -22 69 -53 98 -70c40 23 229 140 229 303c0 112 -102 113 -107 113c-53 0 -110 -58 -111 -59c-2 -2 -7 -5 -11 -5v0c-3 0 -8 3 -11 5c-1 1 -57 59 -111 59z" />
    <glyph glyph-name="four" unicode="4" horiz-adv-x="390" 
d="M129 -157c-50 43 -76 91 -76 139c0 42 38 82 79 82c25 0 49 -17 63 -28c14 12 38 28 63 28c28 0 79 -17 79 -82c0 -108 -129 -177 -135 -180c-1 -1 -5 -2 -7 -2s-5 1 -7 2c-18 9 -44 28 -59 41zM132 32c-23 0 -47 -26 -47 -50c0 -49 35 -90 64 -115c12 -10 33 -25 46 -33
c26 15 111 72 111 148c0 21 -8 35 -23 43c-6 4 -17 7 -25 7c-20 0 -44 -21 -51 -28c-3 -3 -8 -5 -12 -5s-9 2 -11 5c-8 8 -32 28 -52 28z" />
    <glyph glyph-name="five" unicode="5" horiz-adv-x="605" 
d="M544 41c-142 0 -226 -84 -226 -226c-1 -8 -8 -15 -16 -15s-15 7 -16 15c0 142 -85 226 -226 226h-1c-9 0 -16 7 -16 16s7 16 16 16h1c141 0 226 85 226 226c1 9 8 15 16 15s15 -6 16 -15c0 -141 84 -226 226 -226h1c9 0 16 -7 16 -16s-7 -16 -16 -16h-1zM302 -83
c19 58 82 121 140 140c-58 19 -121 82 -140 141c-9 -28 -33 -67 -53 -88c-21 -20 -60 -44 -88 -53c59 -19 122 -82 141 -140z" />
    <glyph glyph-name="six" unicode="6" horiz-adv-x="363" 
d="M166 -185c0 52 -53 105 -105 105h-2c-7 1 -13 8 -13 16s7 15 15 15c52 0 105 54 105 106c1 8 8 15 16 15s15 -7 16 -15c0 -52 53 -106 105 -106c8 0 15 -7 15 -15s-7 -16 -15 -16c-52 0 -105 -53 -105 -105c-1 -9 -8 -15 -16 -15s-15 6 -16 15zM182 -2v1
c-12 -23 -40 -51 -63 -63c23 -12 51 -40 63 -63c12 23 40 51 63 63c-23 12 -51 40 -63 62z" />
    <glyph glyph-name="seven" unicode="7" horiz-adv-x="193" 
d="M66 -170c-9 0 -16 7 -16 16s7 16 16 16h14v14c0 9 7 16 16 16s16 -7 16 -16v-14h14c9 0 16 -7 16 -16s-7 -16 -16 -16h-14v-14c0 -9 -7 -16 -16 -16s-16 7 -16 16v14h-14z" />
    <glyph glyph-name="eight" unicode="8" horiz-adv-x="602" 
d="M65 -200c-8 0 -15 7 -15 16v0c0 40 12 72 36 93c29 26 67 31 87 31c4 22 16 55 27 74c25 39 63 60 111 60c73 0 108 -38 124 -69c7 -14 14 -38 16 -53c35 -3 61 -15 78 -37c32 -42 17 -101 17 -103c-2 -7 -9 -12 -15 -12v0h-466zM107 -114c-14 -13 -23 -31 -25 -55h436
c1 16 2 45 -14 65c-13 17 -36 25 -67 25c-9 0 -16 7 -16 16c0 4 -2 105 -110 105c-83 0 -104 -75 -109 -120c-1 -7 -8 -14 -15 -14h-2s-48 5 -78 -22z" />
    <glyph glyph-name="nine" unicode="9" horiz-adv-x="442" 
d="M66 -200c-9 0 -16 7 -16 16c0 34 20 98 95 106c6 38 33 91 109 91h2c34 0 77 -23 96 -52c24 -35 36 -84 36 -145c0 -9 -7 -16 -16 -16v0h-306zM160 -109c-56 0 -72 -38 -77 -59h273c-4 94 -41 150 -102 150c-78 0 -78 -72 -78 -75c0 -9 -8 -16 -16 -16z" />
    <glyph glyph-name="A" unicode="A" horiz-adv-x="1036" 
d="M381 570c0 9 7 16 16 16h75v75c0 9 7 16 16 16h60c9 0 16 -7 16 -16v-75h74c9 0 16 -7 16 -16v-60c0 -9 -7 -16 -16 -16h-74v-256c0 -8 -7 -15 -16 -15h-60c-9 0 -16 7 -16 15v256h-75c-9 0 -16 7 -16 16v60zM413 555v-30h75c8 0 15 -7 15 -15v-256h29v256
c0 8 7 15 16 15h75v30h-75c-9 0 -16 7 -16 15v75h-29v-75c0 -8 -7 -15 -15 -15h-75zM608 615v0c-9 0 -16 7 -16 15c0 4 3 9 5 12l60 60c3 3 8 5 12 5c8 0 15 -7 15 -16c0 -4 -2 -9 -4 -11l-61 -60c-2 -3 -7 -5 -11 -5zM416 620l-60 60c-2 2 -4 7 -4 10c0 9 7 16 16 16
c3 0 7 -2 10 -4l60 -60c2 -3 4 -7 4 -11c0 -8 -7 -15 -15 -15c-4 0 -8 1 -11 4zM619 461l61 -61c2 -2 5 -8 5 -11c0 -9 -7 -16 -16 -16c-4 0 -9 2 -12 5l-60 61c-3 2 -5 7 -5 11c0 9 7 16 16 16c4 0 9 -2 11 -5zM416 461c3 2 8 4 11 4c9 0 16 -7 16 -15c0 -4 -2 -9 -5 -12
l-60 -60c-2 -2 -7 -4 -11 -4c-8 0 -15 7 -15 16c0 3 2 8 4 10zM699 524h-1c-9 0 -16 7 -16 16s7 16 16 16h1h60h1c9 0 16 -7 16 -16s-7 -16 -16 -16h-1h-60zM276 524h-1c-8 0 -15 7 -15 16s7 16 15 16h1h61h1c8 0 15 -7 15 -16s-7 -16 -15 -16h-1h-61zM518 706
c-9 0 -16 7 -16 15v61c1 8 8 14 16 14s15 -6 16 -14v-61c0 -8 -7 -15 -16 -15v0zM971 -78c8 0 15 -8 15 -16c0 -2 -1 -6 -2 -8c-3 -4 -60 -90 -224 -90c-178 0 -306 82 -484 82h-1c-156 0 -196 -81 -196 -81c-2 -6 -9 -10 -14 -10c-9 0 -16 7 -16 16c0 2 1 5 2 7
c2 4 49 100 224 100h16v14c0 60 -43 109 -92 165c-18 21 -38 43 -56 67c-58 78 -82 158 -82 209c0 29 8 57 34 58c20 0 36 -23 67 -67c21 -28 47 -65 80 -105c7 7 16 11 28 11c26 0 62 -18 110 -53c69 -52 123 -93 123 -194v-141c10 -3 20 -6 29 -8v149
c0 101 55 142 124 193c47 36 83 53 109 53c12 0 22 -4 28 -10c34 40 60 76 80 105c32 44 47 67 67 67c26 -1 34 -29 34 -58c0 -51 -23 -131 -81 -208c-19 -25 -38 -47 -57 -68c-49 -56 -91 -105 -91 -165v-96h15c146 0 195 72 197 75c3 4 9 7 14 7zM223 122
c51 -59 99 -114 99 -186v-16c42 -4 109 -15 150 -26v133c0 82 -38 114 -111 168c-54 41 -80 47 -90 47c-5 0 -7 0 -8 -2c29 -33 80 -82 114 -111c3 -2 6 -8 6 -12c0 -9 -7 -16 -16 -16c-3 0 -8 2 -10 4c-113 94 -180 189 -220 245c-16 22 -32 45 -41 52c-2 -4 -3 -13 -3 -25
c0 -11 1 -26 5 -44c11 -48 36 -100 70 -146c17 -23 36 -44 55 -65zM773 240c-2 2 -4 2 -8 2c-11 0 -37 -6 -91 -47c-73 -54 -110 -86 -110 -168l-1 -157c41 -11 108 -24 150 -28v94c0 72 49 127 100 186c18 20 37 42 54 65c35 46 60 98 70 146c4 18 6 33 6 44
c0 12 -2 21 -4 25c-8 -7 -25 -30 -40 -52c-41 -56 -108 -151 -220 -245c-3 -1 -7 -3 -10 -3c-9 0 -16 7 -16 16c0 4 3 9 6 11c33 28 84 78 114 111z" />
    <glyph glyph-name="B" unicode="B" horiz-adv-x="1097" 
d="M760 615c-9 0 -16 8 -16 16c0 2 1 6 3 8l60 91c3 3 8 5 12 5c9 0 16 -7 16 -15c0 -2 -1 -6 -2 -7l-60 -91c-3 -4 -9 -7 -13 -7zM820 434c-8 0 -15 7 -15 16c0 4 3 11 7 13l151 91c2 1 6 2 8 2c9 0 16 -7 16 -16c0 -5 -4 -11 -8 -13l-151 -91c-2 -1 -5 -2 -8 -2zM1032 314
v0c9 0 16 -7 16 -15c0 -9 -7 -16 -16 -16v0h-182v0c-9 0 -16 7 -16 16c0 8 7 15 16 15v0h182zM993 13l-150 91c-5 3 -8 9 -8 14c0 8 7 15 16 15c2 0 6 -1 8 -2l151 -91c4 -2 7 -8 7 -13c0 -9 -7 -16 -16 -16c-2 0 -6 1 -8 2zM324 622l-60 91c-1 2 -2 5 -2 8c0 8 7 15 15 15
c5 0 10 -2 13 -6l60 -91c2 -2 3 -6 3 -9c0 -9 -7 -16 -15 -16c-5 0 -11 4 -14 8zM118 527c-4 2 -8 8 -8 13c0 9 7 16 16 16c2 0 6 -1 8 -2l151 -91c4 -2 7 -9 7 -13c0 -9 -7 -16 -15 -16c-3 0 -6 1 -8 2zM262 299c0 -9 -7 -16 -15 -16h-181h-1c-9 0 -16 7 -16 16
c0 8 7 15 16 15h1h181c8 0 15 -7 15 -15zM239 131c2 1 5 2 8 2c8 0 15 -7 15 -16c0 -4 -3 -10 -7 -13l-151 -91c-2 -1 -6 -2 -8 -2c-9 0 -16 7 -16 16c0 5 4 11 8 13zM549 706c-9 0 -16 7 -16 15v61c0 8 7 14 16 14c8 0 15 -6 15 -14v-61c0 -8 -7 -15 -15 -15zM1001 -78
c9 0 16 -8 16 -16c0 -2 -1 -6 -3 -8c-2 -4 -59 -90 -223 -90c-178 0 -307 82 -484 83h-2h-4c-26 0 -67 -6 -92 -13c-1 -1 -3 -1 -4 -1c-73 -24 -95 -67 -95 -68c-2 -5 -9 -10 -15 -10c-8 0 -15 7 -15 16c0 2 1 5 2 7c1 3 27 57 112 84l72 72c39 39 69 195 96 332
c40 209 68 336 126 336c15 0 34 -6 42 -34c4 -17 4 -40 4 -72v-513c0 -51 -11 -96 -31 -133c37 -9 73 -20 110 -29c-33 42 -50 96 -50 162v513c0 32 0 55 4 72c8 28 27 34 42 34c58 0 85 -127 126 -336c26 -137 57 -293 96 -332l106 -106c36 20 50 41 51 43c3 4 9 7 13 7z
M305 -78h2c46 -1 119 -10 164 -21c21 34 32 77 32 126v211c0 39 -4 45 -15 45c-22 0 -45 -23 -45 -45v0c0 -18 -7 -169 -31 -218c-3 -4 -9 -8 -14 -8c-9 0 -16 7 -16 16c0 1 1 4 2 6c18 36 26 160 28 205c0 39 37 75 76 75h1c4 0 10 -1 14 -2v228c0 29 0 51 -4 64
c-2 11 -5 11 -11 11c-3 0 -21 -4 -46 -89c-43 -146 -84 -501 -154 -570l-37 -38c15 2 39 4 53 4h1zM670 -148c35 -7 84 -12 121 -12c48 0 86 8 115 19l-97 96c-70 70 -111 425 -154 571c-24 85 -43 89 -46 89c-6 0 -9 0 -11 -11c-3 -13 -3 -35 -3 -64v-228c3 1 10 2 14 2v0
c39 0 76 -37 76 -75c2 -45 11 -169 29 -205c0 -2 1 -5 1 -6c0 -9 -7 -16 -16 -16c-5 0 -11 3 -13 8c-25 49 -32 200 -32 218v0c0 22 -23 45 -45 45c-11 0 -14 -6 -14 -45v-211c0 -77 25 -135 75 -175z" />
    <glyph glyph-name="C" unicode="C" 
d="M914 489h44c9 0 16 -7 16 -15v-629c0 -8 -7 -15 -16 -15h-295l-57 -28c-2 -1 -5 -2 -7 -2h-120c-2 0 -5 1 -6 2l-57 28h-325c-9 0 -16 7 -16 15v659c0 8 7 15 16 15h44v15c0 8 7 15 15 15h75v45c0 7 6 14 13 15c3 0 26 4 60 4c69 0 180 -13 246 -90c26 11 71 23 99 26v15
c0 8 7 15 16 15h120c8 0 15 -7 15 -15v-15c27 -1 59 -5 111 -31c5 -3 9 -9 9 -14v-15zM675 548v-408l37 18c2 1 5 2 7 2s5 -1 7 -2l37 -18v408h-88zM555 494v-589c19 8 53 15 74 16h254v573c-41 20 -66 23 -89 24v-403c0 -9 -7 -16 -15 -16c-2 0 -5 1 -7 2l-53 26l-53 -26
c-2 -1 -5 -2 -7 -2c-9 0 -16 7 -16 16v402c-25 -2 -65 -13 -88 -23zM256 579v-569c151 -3 230 -54 268 -90v578c-57 71 -161 83 -226 83c-18 0 -32 -1 -42 -2zM166 518v-567h134h7c44 0 112 -10 154 -23c-40 25 -110 52 -221 52c-8 0 -15 6 -15 15v523h-59zM533 -139
c-1 1 -1 1 -2 1v0c-39 27 -111 58 -231 58h-150c-8 0 -15 7 -15 15v553h-29v-627h314c2 0 5 -1 7 -2l56 -28h113l56 29c2 0 5 1 7 1h284l-1 597h-29v-552c0 -9 -7 -16 -15 -16h-269c-15 0 -59 -4 -79 -25h-1l-3 -3h-1s-1 -1 -2 -1h-1h-3v0h-1h-2h-1h-1h-1zM429 171
c9 0 16 -7 16 -15c0 -9 -7 -16 -16 -16h-119c-9 0 -16 7 -16 16c0 8 7 15 16 15h44v157l-33 -34c-3 -2 -8 -4 -11 -4c-9 0 -16 7 -16 16c0 3 2 8 5 10l59 60c3 2 8 4 11 4c9 0 16 -7 16 -15v-194h44zM446 349c25 0 45 -20 45 -45s-20 -46 -45 -46s-46 21 -46 46s21 45 46 45
zM446 289c8 0 14 7 14 15v0c0 8 -6 14 -14 14s-15 -6 -15 -14s7 -15 15 -15z" />
    <glyph glyph-name="D" unicode="D" horiz-adv-x="1101" 
d="M983 788c39 0 61 -22 61 -61v-269c0 -38 -22 -60 -61 -60h-364l-56 -111c-2 -6 -8 -9 -14 -9s-11 3 -14 9l-55 111h-350c-36 0 -75 20 -75 75v255c0 38 22 60 61 60h867zM1012 459v269c0 21 -7 29 -29 29h-868c-21 0 -29 -8 -29 -29v-255c0 -29 15 -44 44 -44h360
c5 0 11 -3 14 -9l45 -91l46 92c3 5 8 9 14 9h374c21 0 29 7 29 29zM796 -114c7 -4 10 -13 6 -22c-1 -3 -33 -61 -126 -61h-7c-45 2 -83 15 -120 28c-40 14 -76 27 -120 27h-1c-78 0 -104 -50 -104 -50c-4 -8 -13 -11 -21 -7c-7 3 -11 13 -7 21c1 2 25 48 89 63
c7 97 43 164 88 164h34c-15 9 -28 22 -37 37c-24 45 -7 99 37 123c44 23 99 7 123 -37c23 -45 7 -99 -38 -123h31c24 0 48 -26 65 -75c15 -43 24 -88 26 -135c45 11 61 40 61 40c4 8 13 11 21 7zM550 189c-33 0 -59 -27 -59 -59c0 -33 26 -60 59 -60s59 27 59 60
c0 32 -26 59 -59 59zM669 -164h13c-1 43 -9 87 -23 128c-15 41 -31 55 -36 55h-150c-20 0 -49 -45 -57 -129h12h1c49 0 90 -14 130 -28c36 -13 71 -25 110 -26zM379 728c29 0 84 -18 85 -87c0 -117 -140 -192 -146 -195c-5 -2 -10 -2 -15 0c-22 13 -44 28 -63 45
c-54 46 -83 98 -83 150c0 45 41 87 84 87c28 0 54 -17 69 -30h1c14 13 41 30 68 30zM188 641c0 -54 39 -99 72 -127c11 -10 25 -20 38 -29l24 47l-55 82c-3 5 -4 11 -1 16l23 45c-12 10 -31 22 -48 22c-26 0 -53 -29 -53 -56zM339 497c39 28 93 80 92 143c0 24 -8 40 -25 49
c-9 4 -18 7 -27 8c-23 0 -50 -23 -58 -32c-1 -1 -2 -2 -4 -2l-19 -39l55 -82c3 -5 4 -11 1 -16zM685 590c-1 -1 -1 -2 -1 -1v-1s-1 -1 -1 -2h-1l-1 -2h-1l-30 -31c-5 -4 -14 -4 -20 0c-6 6 -7 16 -1 22l3 4h-112c-9 0 -16 7 -16 15c0 9 7 16 16 16h111l-3 3c-5 6 -5 15 0 21
c6 7 16 7 22 1l30 -30c1 0 1 -2 2 -2v-1c1 0 1 -1 1 -1l1 -1c0 -1 1 -2 1 -3v-3v-1v-2v-1zM939 669c8 0 15 -7 15 -16v-60c0 -8 -7 -15 -15 -15h-44v-105c0 -8 -7 -15 -16 -15h-60c-8 0 -15 7 -15 15v105h-45c-8 0 -15 7 -15 15v60c0 9 7 16 15 16h45v44c0 8 7 15 15 15h60
c9 0 16 -7 16 -15v-44h44zM923 609v28h-45c-8 0 -15 7 -15 16v44h-29v-44c0 -9 -7 -16 -16 -16h-44v-28h45c8 0 15 -7 15 -16v-104h29v104c0 9 7 16 16 16h44z" />
    <glyph glyph-name="E" unicode="E" horiz-adv-x="843" 
d="M548 -196c-94 0 -157 55 -248 55v0c-77 0 -103 -49 -104 -51c-2 -4 -9 -8 -14 -8c-8 0 -15 7 -15 15c0 2 0 5 1 7c2 3 35 68 132 68h1c12 0 33 -2 45 -4v70c-52 10 -127 45 -167 79c-56 50 -102 151 -102 226v3c0 103 47 178 88 243c33 52 62 97 62 146
c0 50 -24 104 -75 104s-74 -23 -74 -74c0 -22 16 -30 29 -30c14 0 30 8 30 30c0 8 7 15 15 15c9 0 16 -7 16 -15c0 -40 -31 -61 -61 -61s-60 21 -60 61c0 69 36 105 105 105v0c29 0 65 -20 80 -44c14 -22 26 -62 26 -88v-3c0 -5 -1 -10 -1 -15h329v15v3c0 26 11 66 25 88
c15 24 51 44 80 44v0c69 0 105 -36 105 -105c0 -40 -30 -61 -60 -61s-61 21 -61 61c0 8 7 15 16 15c8 0 15 -7 15 -15c0 -22 16 -30 30 -30c13 0 29 8 29 30c0 51 -23 74 -74 74s-74 -54 -75 -104c0 -49 29 -94 61 -146c42 -65 89 -140 89 -243v-3c0 -75 -46 -176 -102 -226
c-40 -34 -115 -69 -167 -79v-111v-3c14 -4 35 -7 51 -7c73 0 98 43 99 45c2 4 8 8 13 8c9 0 16 -7 16 -16c0 -2 -1 -5 -2 -7c-1 -3 -33 -61 -126 -61zM227 548c-46 -85 -119 -161 -119 -284v-1c0 -79 53 -180 119 -224v509zM316 -4v611h-58v-582c0 -2 -1 -4 -1 -5
c16 -8 42 -19 59 -24zM347 607v-619c16 -4 43 -7 59 -7v626h-59zM466 -150v102c-13 -2 -33 -3 -45 -3s-32 1 -44 3v-73c31 -8 59 -20 89 -29zM496 -12v619h-59v-626c16 0 43 3 59 7zM527 -5v1c17 5 44 16 59 24c0 1 0 3 -1 5v582h-58v-612zM651 490l1 1
c-13 19 -25 38 -35 57v-509c65 44 118 145 118 224v1c0 94 -42 161 -84 226z" />
    <glyph glyph-name="F" unicode="F" horiz-adv-x="1089" 
d="M554 585c55 29 129 60 231 60c57 0 113 -12 154 -46c71 -59 93 -135 93 -215c0 -56 -10 -113 -23 -168c1 -5 2 -12 2 -16c0 -47 -42 -87 -89 -87v0c-5 0 -12 0 -16 1c0 -3 1 -8 1 -12c0 -47 -42 -89 -89 -90c-4 0 -10 1 -13 2c1 -5 1 -11 1 -16c0 -44 -38 -85 -81 -87h-4
c-4 0 -12 1 -16 2v-13c0 -49 -36 -87 -74 -97c-5 -2 -15 -3 -20 -3c-18 0 -42 10 -54 22c-12 -11 -36 -21 -53 -21c-48 0 -86 43 -86 90v7c-56 -17 -112 32 -112 86c0 6 1 14 2 20c-3 -1 -7 -1 -10 -1c-47 1 -89 42 -89 90c0 3 1 9 1 13c-3 -1 -8 -1 -11 -1
c-47 0 -85 43 -86 89l-3 3c-31 41 -56 115 -56 166c0 13 2 35 4 48c13 78 56 151 113 189c45 30 103 41 160 41c99 0 170 -28 223 -56zM397 391c0 -27 27 -43 55 -43c27 0 61 13 95 47c85 83 118 83 151 83c119 0 263 -185 289 -219c8 42 15 85 15 126c0 72 -20 138 -82 190
c-35 29 -85 39 -135 39c-95 0 -165 -29 -221 -59c-52 -28 -126 -74 -161 -144c-3 -5 -6 -14 -6 -20zM291 232c0 31 -37 48 -66 48c-12 0 -23 -3 -28 -9l-34 -34c-10 -9 -18 -28 -18 -42c0 -30 24 -59 54 -59c13 0 26 6 37 17c20 19 30 29 41 40c9 15 14 28 14 39zM392 131
c0 31 -37 47 -65 47c-13 0 -23 -3 -29 -8l-34 -34c-1 -1 -3 -2 -4 -3c-13 -13 -20 -27 -20 -41c0 -30 28 -58 58 -58c13 0 27 5 40 18c0 0 13 12 39 37c10 16 15 30 15 42zM493 29c0 31 -36 48 -65 48c-12 0 -23 -3 -28 -9l-34 -33c-3 -3 -6 -5 -9 -7c0 -2 -2 -4 -3 -5
c-12 -13 -18 -26 -18 -39c0 -30 29 -58 59 -58c13 0 26 5 39 18l13 13l31 31c10 15 15 29 15 41zM591 -78c0 31 -36 53 -65 53c-20 0 -29 -12 -39 -22c-15 -16 -38 -35 -38 -62c0 -28 21 -51 43 -58v0c4 -1 8 -1 12 -1c12 0 25 5 36 16l34 34h1c11 14 16 27 16 40zM922 143
c30 0 57 26 57 56c0 13 -4 26 -16 39c0 0 -1 2 -2 3c-25 34 -161 206 -263 206c-28 0 -54 0 -129 -74c-41 -40 -82 -56 -117 -56c-46 0 -85 31 -85 74c0 10 3 25 8 34c33 66 95 111 147 142l-12 6c-36 18 -107 37 -179 37c-52 0 -103 -10 -143 -36c-49 -33 -88 -99 -99 -168
c-2 -12 -4 -31 -4 -43c0 -39 17 -96 37 -129c4 8 13 19 19 26l34 33c11 12 30 17 51 17c47 0 96 -30 96 -78c0 -7 -2 -17 -4 -23h10c21 0 52 -10 68 -23c15 -12 27 -37 27 -56c0 -6 -2 -17 -4 -23c3 0 8 1 10 1c21 0 52 -11 69 -23c15 -12 27 -37 27 -56c0 -6 -2 -16 -4 -22
h4c47 0 98 -35 98 -85c0 -20 -9 -42 -30 -65c-1 -1 -2 -3 -4 -3l-10 -10c8 -7 22 -13 32 -13c34 0 64 34 64 70c0 13 -8 31 -18 41c-1 0 -2 2 -2 2l-197 197c-2 2 -4 7 -4 10c0 9 7 16 16 16c3 0 8 -2 10 -4l203 -203c9 -10 27 -18 40 -18c28 2 52 27 52 56
c0 14 -5 28 -18 41l-203 203c-3 3 -5 7 -5 11c0 9 7 16 16 16c3 0 8 -3 11 -5l203 -203c12 -12 26 -18 39 -18c30 0 58 28 58 58c0 13 -5 27 -18 40l-203 202c-2 3 -5 8 -5 12c0 8 7 15 16 15c4 0 9 -2 11 -5l203 -203c13 -13 28 -19 42 -19z" />
    <glyph glyph-name="G" unicode="G" horiz-adv-x="1021" 
d="M509 518c-95 0 -132 -59 -149 -59c-8 0 -15 7 -15 15c0 3 2 8 4 11c2 2 65 64 160 64s158 -62 161 -64c3 -3 5 -8 5 -12c0 -8 -7 -15 -16 -15c-3 0 -9 2 -11 5c-1 0 -56 55 -139 55zM706 555c-2 3 -58 83 -197 83c-138 0 -194 -80 -196 -83c-3 -4 -8 -7 -13 -7
c-9 0 -16 7 -16 15c0 3 2 7 3 9c3 4 66 97 222 97s220 -93 223 -97c1 -2 2 -6 2 -9c0 -8 -7 -15 -15 -15c-5 0 -11 3 -13 7zM240 638c-9 0 -15 7 -15 15c0 3 1 7 3 9c4 6 96 126 281 126s278 -120 282 -126c2 -2 3 -6 3 -9c0 -8 -7 -15 -15 -15c-5 0 -10 2 -13 6
c-1 1 -87 113 -257 113s-256 -112 -257 -113c-2 -3 -8 -6 -12 -6zM958 -79c9 0 16 -8 16 -16c0 -2 -1 -6 -3 -8c-2 -4 -59 -89 -222 -89c-176 0 -303 81 -479 81h-2c-152 0 -192 -77 -193 -80c-3 -5 -9 -9 -14 -9c-9 0 -16 7 -16 15c0 2 1 5 2 7c1 4 41 85 185 97
c12 57 37 91 68 91h48c-35 6 -63 40 -63 75c0 20 12 46 28 59c-5 70 -30 105 -43 105h-120c-15 0 -44 -46 -44 -134c0 -9 -7 -16 -16 -16c-8 0 -15 7 -15 16c0 94 32 165 75 165h48c-35 6 -63 39 -63 74c0 42 34 75 75 75c42 0 76 -33 76 -75c0 -35 -29 -68 -64 -74h48
c36 0 65 -49 73 -122c4 1 12 2 17 2c4 0 12 -1 17 -2c8 73 37 122 72 122h48c-35 6 -63 39 -63 74c0 42 34 75 75 75c42 0 76 -33 76 -75c0 -35 -29 -68 -63 -74h47c36 0 65 -49 73 -122c5 1 12 2 17 2s12 -1 17 -2c8 73 37 122 73 122h47c-34 6 -63 39 -63 74
c0 42 34 75 76 75c41 0 75 -33 75 -75c0 -35 -28 -68 -63 -74h48c43 0 75 -71 75 -165c0 -9 -7 -16 -16 -16c-8 0 -15 7 -15 16c0 88 -29 134 -44 134h-120c-13 0 -38 -35 -43 -105c16 -13 28 -39 28 -59c0 -35 -28 -69 -62 -75h47c47 0 75 -106 75 -165v-3
c111 12 149 69 151 72c3 4 9 7 13 7zM764 354c0 -24 20 -44 45 -44c24 0 44 20 44 44s-20 44 -44 44c-25 0 -45 -20 -45 -44zM166 354c0 -24 20 -44 44 -44c25 0 44 20 44 44s-19 44 -44 44c-24 0 -44 -20 -44 -44zM659 129c-25 0 -44 -20 -44 -44c0 -25 19 -45 44 -45
c24 0 44 20 44 45c0 24 -20 44 -44 44zM465 354c0 -24 20 -44 44 -44c25 0 45 20 45 44s-20 44 -45 44c-24 0 -44 -20 -44 -44zM315 85c0 -25 20 -45 45 -45c24 0 44 20 44 45c0 24 -20 44 -44 44c-25 0 -45 -20 -45 -44zM270 -79c69 -1 131 -13 191 -27
c-9 59 -31 86 -41 86h-120c-10 0 -26 -19 -36 -59h6zM517 -121l8 -2c6 78 36 133 74 133h48c-35 6 -63 40 -63 75c0 20 13 46 28 59c-5 70 -30 105 -43 105h-120c-12 0 -37 -35 -43 -105c16 -13 29 -39 29 -59c0 -35 -28 -69 -63 -75h48c36 0 65 -50 73 -125zM763 -160
c-1 29 -7 69 -17 96c-13 35 -25 44 -27 44h-120c-13 0 -39 -37 -43 -111c67 -17 129 -32 207 -29zM375 69c0 -9 -7 -16 -15 -16c-9 0 -16 7 -16 16v0c0 9 7 16 16 16c8 0 15 -7 15 -16v0zM659 53c-9 0 -16 7 -16 16v0c0 9 7 16 16 16c8 0 15 -7 15 -16v0
c0 -9 -7 -16 -15 -16zM824 338c0 -9 -7 -16 -15 -16c-9 0 -16 7 -16 16v0c0 9 7 16 16 16c8 0 15 -7 15 -16v0zM525 338c0 -9 -7 -16 -16 -16c-8 0 -15 7 -15 16v0c0 9 7 16 15 16c9 0 16 -7 16 -16v0zM210 354c9 0 16 -7 16 -16v0c0 -9 -7 -15 -16 -15c-8 0 -15 6 -15 15v0
c0 9 7 16 15 16z" />
    <glyph glyph-name="H" unicode="H" horiz-adv-x="1021" 
d="M892 210c28 0 80 0 80 -45c0 -30 -35 -54 -118 -79c-64 -20 -152 -39 -237 -57c-143 -31 -305 -66 -344 -105c-27 -27 -56 -61 -85 -86v-22c0 -9 -7 -16 -16 -16h-89c-9 0 -16 7 -16 16v329c0 8 7 15 16 15h89c9 0 16 -7 16 -15v-21c45 37 132 66 373 66h18
c76 0 198 7 274 17c19 2 31 3 39 3zM98 -169h59v298h-59v-298zM845 115c89 27 96 46 96 50c0 11 -12 15 -49 15c-6 0 -19 -2 -35 -4c-62 -7 -161 -15 -223 -16c2 -4 3 -11 3 -15v0c0 -39 -37 -76 -76 -76h-1c-20 2 -57 4 -94 4c-41 0 -82 -2 -101 -12c-2 -1 -5 -1 -7 -1
c-8 0 -15 7 -15 15c0 5 3 12 8 14c24 12 72 15 116 15s85 -3 95 -4c21 1 44 23 44 45c0 11 -6 14 -45 14c-278 0 -340 -39 -373 -80v-200c20 20 43 47 63 67c46 45 198 78 359 113c85 18 172 36 235 56zM478 328c-64 56 -142 146 -142 257c0 73 69 144 138 144
c51 0 101 -38 122 -58c22 20 71 58 123 58c1 0 138 -1 138 -144c0 -83 -45 -167 -128 -244c-31 -29 -88 -69 -125 -90c-2 -1 -5 -2 -7 -2c-3 0 -6 1 -8 2c-33 18 -82 53 -111 77zM474 698c-53 0 -107 -57 -107 -113c0 -99 72 -182 132 -233c25 -22 69 -53 97 -70
c40 23 229 140 229 303c0 112 -102 113 -106 113c-54 0 -111 -58 -111 -59c-3 -2 -8 -5 -12 -5c-3 0 -8 3 -11 5c0 1 -57 59 -111 59z" />
    <glyph glyph-name="I" unicode="I" 
d="M914 489h44c9 0 16 -7 16 -15v-629c0 -8 -7 -15 -16 -15h-295l-57 -28c-2 -1 -5 -2 -7 -2h-120c-2 0 -5 1 -6 2l-57 28h-325c-9 0 -16 7 -16 15v659c0 8 7 15 16 15h44v15c0 8 7 15 15 15h75v45c0 7 6 14 13 15c3 0 26 4 60 4c69 0 180 -13 246 -90c26 11 71 23 99 26v15
c0 8 7 15 16 15h120c8 0 15 -7 15 -15v-15c27 -1 59 -5 111 -31c5 -3 9 -9 9 -14v-15zM675 548v-408l37 18c2 1 5 2 7 2s5 -1 7 -2l37 -18v408h-88zM555 494v-589c19 8 53 15 74 16h254v573c-41 20 -66 23 -89 24v-403c0 -9 -7 -16 -15 -16c-2 0 -5 1 -7 2l-53 26l-53 -26
c-2 -1 -5 -2 -7 -2c-9 0 -16 7 -16 16v402c-25 -2 -65 -13 -88 -23zM256 579v-569c151 -3 230 -54 268 -90v578c-57 71 -161 83 -226 83c-18 0 -32 -1 -42 -2zM166 518v-567h134h7c44 0 112 -10 154 -23c-40 25 -110 52 -221 52c-8 0 -15 6 -15 15v523h-59zM533 -139
c-1 1 -1 1 -2 1v0c-39 27 -111 58 -231 58h-150c-8 0 -15 7 -15 15v553h-29v-627h314c2 0 5 -1 7 -2l56 -28h113l56 29c2 0 5 1 7 1h284l-1 597h-29v-552c0 -9 -7 -16 -15 -16h-270c-14 0 -58 -4 -78 -25h-1l-3 -3h-1s-1 -1 -2 -1h-1h-3v0h-1h-2h-1h-1h-1zM479 340
c9 0 16 -7 16 -16c0 -8 -7 -15 -16 -15h-74v-194c0 -9 -7 -16 -15 -16c-9 0 -16 7 -16 16v194h-74c-9 0 -16 7 -16 15c0 9 7 16 16 16h74v74c0 8 7 15 16 15c8 0 15 -7 15 -15v-74h74z" />
    <glyph glyph-name="J" unicode="J" horiz-adv-x="1053" 
d="M472 68c16 11 45 17 71 17c20 0 40 -4 60 -13c27 6 50 9 71 9c23 0 43 -4 61 -11v0c24 -1 62 -7 85 -12c92 -22 184 -81 184 -153c0 -47 -23 -78 -67 -93c-36 -12 -83 -12 -128 -12h-628c-9 0 -16 7 -16 16v150c0 2 1 4 1 5s1 2 1 2v1c50 75 80 174 86 217
c-12 2 -25 13 -25 29c0 10 5 21 11 31c-68 10 -116 53 -141 128c-21 64 -23 140 -23 199h-14c-9 0 -16 7 -16 15c0 9 7 16 16 16h538c9 0 16 -7 16 -16c0 -8 -7 -15 -16 -15h-14c0 -59 -2 -135 -23 -199c-26 -75 -73 -118 -141 -128c6 -10 11 -21 11 -31
c0 -16 -14 -28 -27 -30c1 -34 11 -89 24 -121c5 1 15 1 20 1c7 0 16 -1 23 -2zM285 -19c24 31 75 68 113 81c-7 18 -15 48 -18 67h-109c-13 -43 -41 -110 -63 -148h77zM374 189h-90c-1 -8 -3 -18 -5 -29h97c-1 11 -2 21 -2 29zM128 389c24 -74 71 -109 142 -109
c9 0 16 -7 16 -16c0 -3 -2 -8 -5 -11c-11 -11 -21 -26 -22 -32c3 -1 7 -1 10 -1h1h120h1c3 0 7 0 10 1c-1 7 -11 22 -22 32c-3 3 -5 8 -5 11c0 9 7 16 16 16c71 0 118 35 142 109c20 59 22 132 22 189h-448c0 -57 2 -130 22 -189zM195 -50v-119h111c-35 18 -52 42 -52 74
c1 13 6 33 11 45h-70zM513 51c53 -37 72 -108 72 -115c0 -9 -7 -16 -16 -16c-7 0 -13 5 -15 12c0 1 -28 107 -105 107c-82 0 -164 -84 -164 -134c0 -49 76 -74 224 -74h299h1c102 0 164 5 164 74c0 57 -93 113 -192 129c19 -23 32 -54 43 -95v-4c0 -8 -7 -15 -15 -15
c-7 0 -14 5 -15 12c-21 82 -55 118 -120 118c-10 0 -22 -1 -35 -3c27 -24 53 -67 65 -139v-2c0 -9 -7 -16 -15 -16c-7 0 -14 6 -15 13c-12 71 -40 119 -81 140c-13 6 -36 12 -51 12c-8 0 -21 -2 -29 -4zM330 668c-9 0 -16 7 -16 15v90c0 9 7 16 16 16c8 0 15 -7 15 -16v-90
c0 -8 -7 -15 -15 -15zM520 642c-3 -3 -7 -4 -11 -4c-9 0 -15 7 -15 15c0 4 2 9 4 11l30 30c3 3 8 5 11 5c9 0 16 -7 16 -15c0 -4 -2 -9 -5 -12zM139 642l-30 30c-2 3 -4 7 -4 11c0 8 7 15 16 15c3 0 8 -2 10 -4l30 -30c2 -2 4 -7 4 -10c0 -9 -7 -16 -15 -16c-4 0 -8 2 -11 4
zM420 668c-9 0 -16 7 -16 15c0 2 1 5 1 7l31 60c2 5 8 8 13 8c9 0 16 -7 16 -15c0 -2 -1 -5 -2 -7l-30 -60c-2 -5 -8 -8 -13 -8zM226 676l-30 60c-1 2 -1 5 -1 7c0 9 7 16 15 16c5 0 12 -4 14 -9l30 -60c1 -2 2 -5 2 -7c0 -8 -7 -15 -16 -15c-5 0 -11 3 -14 8z" />
    <glyph glyph-name="K" unicode="K" 
d="M914 489h44c9 0 16 -7 16 -15v-629c0 -8 -7 -15 -16 -15h-295l-57 -28c-2 -1 -5 -2 -7 -2h-120c-2 0 -5 1 -6 2l-57 28h-325c-9 0 -16 7 -16 15v659c0 8 7 15 16 15h44v15c0 8 7 15 15 15h75v45c0 7 6 14 13 15c3 0 26 4 60 4c69 0 180 -13 246 -90c26 11 71 23 99 26v15
c0 8 7 15 16 15h120c8 0 15 -7 15 -15v-15c27 -1 59 -5 111 -31c5 -3 9 -9 9 -14v-15zM675 548v-408l37 18c2 1 5 2 7 2s5 -1 7 -2l37 -18v408h-88zM555 494v-589c19 8 53 15 74 16h254v573c-41 20 -66 23 -89 24v-403c0 -9 -7 -16 -15 -16c-2 0 -5 1 -7 2l-53 26l-53 -26
c-2 -1 -5 -2 -7 -2c-9 0 -16 7 -16 16v402c-25 -2 -65 -13 -88 -23zM256 579v-569c151 -3 230 -54 268 -90v578c-57 71 -161 83 -226 83c-18 0 -32 -1 -42 -2zM166 518v-567h134h7c44 0 112 -10 154 -23c-40 25 -110 52 -221 52c-8 0 -15 6 -15 15v523h-59zM533 -139
c-1 1 -1 1 -2 1v0c-39 27 -111 58 -231 58h-150c-8 0 -15 7 -15 15v553h-29v-627h314c2 0 5 -1 7 -2l56 -28h113l56 29c2 0 5 1 7 1h284l-1 597h-29v-552c0 -9 -7 -16 -15 -16h-270c-14 0 -58 -4 -78 -25h-1l-3 -3h-1s-1 -1 -2 -1h-1h-3v0h-1h-2h-1h-1h-1zM453 349
c25 0 45 -20 45 -45s-20 -46 -45 -46s-46 21 -46 46s21 45 46 45zM453 289c8 0 14 7 14 15v0c0 8 -6 14 -14 14s-15 -6 -15 -14s7 -15 15 -15zM347 392c33 0 50 -28 50 -63c0 -47 -20 -79 -38 -107c-11 -18 -21 -34 -25 -51h52v0c8 0 15 -7 15 -15c0 -9 -7 -16 -15 -16h-69
c-9 0 -16 7 -16 16c0 69 65 100 65 173c0 18 -3 32 -18 32h-2c-13 0 -21 -21 -21 -36c0 -8 -7 -15 -15 -15c-9 0 -16 7 -16 15c0 33 19 67 52 67h1z" />
    <glyph glyph-name="L" unicode="L" horiz-adv-x="1027" 
d="M753 -112c9 0 15 -8 15 -16c0 -2 0 -5 -1 -7c-2 -2 -34 -60 -126 -60h-8c-88 3 -152 55 -240 55v0c-77 0 -103 -49 -104 -51c-3 -5 -9 -9 -14 -9c-9 0 -16 7 -16 16c0 2 1 5 2 6c11 20 38 44 59 54c5 130 47 224 101 224h59c-40 14 -73 60 -73 102c0 60 49 108 108 108
s108 -48 108 -108c0 -42 -33 -88 -73 -102h55c68 0 104 -167 107 -246c9 5 21 17 27 26c3 4 9 8 14 8zM438 202c0 -42 35 -77 77 -77s76 35 76 77s-34 76 -76 76s-77 -34 -77 -76zM393 -109c92 -1 154 -52 241 -55v-1h6c12 0 31 3 42 6c-2 59 -14 118 -31 163
c-18 48 -38 65 -46 65h-184c-25 0 -63 -65 -70 -183c11 3 29 5 40 5h1h1zM465 642c-3 -3 -8 -5 -11 -5c-9 0 -16 7 -16 16c0 3 2 8 5 11l60 60c2 2 6 4 11 4c4 0 8 -2 10 -4l60 -60c3 -3 5 -7 5 -11c0 -8 -7 -15 -16 -15c-3 0 -8 2 -11 4l-33 33v-291c0 -9 -7 -16 -15 -16
c-9 0 -16 7 -16 16v291zM856 594c1 -1 2 -3 2 -5v-3v-84c0 -9 -7 -16 -15 -16c-9 0 -16 7 -16 16v47l-206 -206c-3 -3 -7 -4 -11 -5c-9 0 -16 7 -16 16c0 3 2 8 5 11l206 206h-47c-9 0 -16 7 -16 15c0 9 7 16 16 16h85c5 0 13 -4 13 -8zM170 591c1 6 7 11 14 11h85
c9 0 15 -7 15 -16c0 -8 -6 -15 -15 -15h-47l206 -206c3 -3 5 -8 5 -12c0 -8 -7 -15 -15 -15c-4 0 -9 2 -12 5l-206 206v-47c0 -9 -7 -16 -16 -16c-8 0 -15 7 -15 16v84c0 2 1 4 1 5zM977 230c0 -2 -2 -3 -2 -4s-1 -2 -2 -3l-60 -60c-2 -2 -7 -4 -10 -4c-9 0 -16 7 -16 16
c0 3 2 8 4 10l34 34h-262c-8 0 -15 7 -15 15c0 9 7 16 15 16h262l-33 33c-2 2 -4 7 -4 9c0 9 7 16 16 16c3 0 7 -2 9 -3l60 -60c1 -1 3 -3 3 -4c1 -1 2 -3 2 -4v-3s-1 -3 -1 -4zM50 238c0 2 2 3 2 5l2 2l60 60c2 3 7 5 11 5c9 0 16 -7 16 -15c0 -4 -2 -10 -5 -12l-34 -34
h262c8 0 15 -6 15 -15s-7 -16 -15 -16h-262l33 -33c3 -2 5 -7 5 -11c0 -9 -7 -16 -15 -16c-4 0 -9 3 -12 5l-59 60c-1 1 -3 3 -3 4c-1 1 -2 3 -2 4v3c0 2 1 3 1 4z" />
    <glyph glyph-name="M" unicode="M" horiz-adv-x="1016" 
d="M955 -80c9 0 15 -7 15 -15c0 -3 -1 -6 -2 -9c-2 -3 -58 -88 -221 -88h-16c-166 6 -292 81 -462 81h-1c-152 0 -192 -77 -194 -81s-8 -8 -14 -8c-8 0 -15 7 -15 15c0 2 1 5 2 7s15 31 56 57v652c0 9 7 16 16 16h192h1h1h1h1h193c8 0 15 -7 15 -16v-654
c53 -14 103 -27 157 -34l-156 636c-1 1 -1 3 -1 4c0 7 6 14 12 15l187 46c1 0 2 1 4 1c6 0 13 -6 15 -12l161 -655c13 7 31 23 40 35c2 4 8 7 13 7zM492 515l-161 1v-599c57 -6 110 -19 161 -32v630zM268 -80h1h27v596h-162v-620c33 14 76 24 134 24zM732 -161h15
c56 0 97 11 127 24l-159 647l-157 -38l155 -632c6 0 12 -1 19 -1zM248 480c9 0 16 -7 16 -16c0 -8 -7 -15 -16 -15h-64c-9 0 -16 7 -16 15c0 9 7 16 16 16h64zM248 415c9 0 16 -7 16 -16c0 -8 -7 -15 -16 -15h-64c-9 0 -16 7 -16 15c0 9 7 16 16 16h64zM248 350
c9 0 16 -7 16 -15c0 -9 -7 -16 -16 -16h-64c-9 0 -16 7 -16 16c0 8 7 15 16 15h64zM248 -7c9 0 16 -7 16 -15c0 -9 -7 -16 -16 -16h-64c-9 0 -16 7 -16 16c0 8 7 15 16 15h64zM380 449c-8 0 -15 7 -15 15c0 9 7 16 15 16h65c8 0 15 -7 15 -16c0 -8 -7 -15 -15 -15h-65z
M380 384c-8 0 -15 7 -15 15c0 9 7 16 15 16h65c8 0 15 -7 15 -16c0 -8 -7 -15 -15 -15h-65zM380 319c-8 0 -15 7 -15 16c0 8 7 15 15 15h65c8 0 15 -7 15 -15c0 -9 -7 -16 -15 -16h-65zM380 -38c-8 0 -15 7 -15 16c0 8 7 15 15 15h65c8 0 15 -7 15 -15c0 -9 -7 -16 -15 -16
h-65zM685 434l-63 -15c-1 -1 -3 -1 -4 -1c-9 0 -16 7 -16 16c0 6 6 13 12 15l63 15c1 0 3 1 4 1c8 0 15 -7 15 -16c0 -6 -5 -13 -11 -15zM700 371l-63 -15c-1 -1 -3 -1 -4 -1c-8 0 -15 7 -15 16c0 6 5 13 12 15l63 15c1 1 2 1 3 1c9 0 16 -7 16 -16c0 -6 -5 -13 -12 -15z
M712 339c8 0 15 -7 15 -16c0 -6 -5 -13 -11 -15l-63 -15c-1 -1 -3 -1 -4 -1c-9 0 -16 7 -16 16c0 6 6 13 12 15l63 15c1 1 3 1 4 1zM797 -8c8 0 16 -6 16 -15c0 -7 -6 -13 -12 -15l-63 -16h-4c-8 0 -15 7 -15 15c0 7 5 14 11 15l63 16h4z" />
    <glyph glyph-name="N" unicode="N" horiz-adv-x="1030" 
d="M273 -78c178 0 310 -82 485 -82h13v808s-470 2 -513 0v-726h13h2zM803 663v-821c12 1 21 3 29 5v891c0 17 -14 31 -31 31h-573c-17 0 -30 -14 -30 -31v-822c9 2 19 3 29 4v743c0 9 7 16 15 16h545c9 0 16 -7 16 -16zM422 324c0 -1 3 1 3 1h248c4 0 8 2 8 5v191
c0 3 -4 5 -8 5h-317c-4 0 -7 -2 -7 -5v-265l64 64l1 1c2 2 5 3 8 3zM430 293l-85 -86c-3 -3 -7 -5 -12 -5c-9 0 -16 7 -16 16v2v301c1 20 18 37 39 37h318c20 0 37 -17 38 -37v-191c-1 -20 -17 -37 -39 -37h-243zM453 220v-122c1 -2 3 -4 4 -6h172c5 0 9 -2 12 -6l40 -45
v177c-1 2 -3 4 -4 6h-219c-2 -2 -4 -3 -5 -4zM984 -93c0 -3 -1 -7 -2 -9c-2 -4 -59 -90 -224 -90c-179 0 -308 82 -486 83h-1c-155 0 -195 -79 -197 -82c-2 -5 -8 -9 -13 -9c-9 0 -16 7 -16 16c0 2 1 5 1 6c2 4 30 59 120 86v830c0 34 28 62 62 62h573c35 0 62 -28 62 -62
v-883c68 22 91 57 93 60c2 4 8 7 13 7c8 0 15 -7 15 -15zM424 739h182c8 0 15 -7 15 -15c0 -9 -7 -16 -15 -16h-182c-9 0 -16 7 -16 16c0 8 7 15 16 15zM696 -16c-5 0 -9 3 -12 6l-63 71h-167c-19 0 -33 23 -33 34v126c0 20 23 34 33 34h225c19 0 33 -23 33 -33v-220v-2
c0 -9 -7 -16 -16 -16zM757 739c8 0 15 -7 15 -15c0 -9 -7 -16 -15 -16h-31c-8 0 -15 7 -15 16c0 8 7 15 15 15h31z" />
    <glyph glyph-name="O" unicode="O" horiz-adv-x="1016" 
d="M955 -72c9 0 15 -8 15 -15c0 -3 -1 -7 -2 -9c-2 -3 -58 -88 -221 -88h-16c-166 6 -292 81 -462 81h-1c-154 0 -193 -80 -194 -81c-2 -4 -8 -8 -14 -8c-8 0 -15 6 -15 15c0 2 1 5 1 7c2 2 23 45 88 73v546c0 9 7 16 16 16h536c9 0 16 -7 16 -16v-104h44c31 0 63 0 89 -12
c31 -16 46 -46 46 -92v-209c0 -47 -15 -77 -46 -92c-26 -13 -58 -13 -89 -13h-44v-78c14 -2 29 -2 45 -2c144 0 193 71 195 74c2 4 8 7 13 7zM702 255v-238h24c32 0 55 0 60 5c4 3 4 21 4 42v144c0 21 0 39 -4 42c-5 5 -28 5 -60 5h-24zM822 64c0 -75 -14 -78 -96 -78h-24
v-28h44c66 0 104 3 104 74v209c0 70 -37 73 -104 73h-44v-28h24c82 0 96 -3 96 -78v-144zM671 434h-506v-29h506v29zM269 -72c150 0 269 -58 402 -76v522h-506v-460c27 8 71 14 98 14h5h1zM461 721c0 -48 -27 -79 -27 -124c0 -33 17 -42 21 -45c4 -2 7 -8 7 -13
c0 -8 -7 -15 -16 -15c-1 0 -3 0 -5 1c-1 1 -38 19 -38 73c0 47 27 78 27 124c0 31 -13 39 -18 41c-5 3 -9 9 -9 15c0 8 7 15 15 15c3 0 7 -1 9 -3c1 0 34 -19 34 -69zM580 721c0 -48 -27 -79 -27 -124c0 -33 17 -42 21 -45c4 -2 7 -8 7 -13c0 -8 -7 -15 -15 -15
c-2 0 -4 0 -6 1c-1 1 -38 19 -38 73c0 47 28 78 28 123c0 32 -13 40 -18 42c-6 3 -10 9 -10 15c0 8 7 15 15 15c3 0 7 -1 9 -3c2 0 34 -19 34 -69zM342 721c0 -48 -28 -79 -28 -124c0 -33 18 -42 22 -45c3 -2 7 -8 7 -13c0 -8 -7 -15 -16 -15c-1 0 -4 0 -5 1
c-2 1 -38 19 -38 73c0 47 27 78 27 123c0 32 -14 40 -18 42c-4 3 -7 9 -7 13c0 9 7 16 16 16c2 0 4 -1 6 -2c1 0 34 -19 34 -69z" />
    <glyph glyph-name="P" unicode="P" horiz-adv-x="1032" 
d="M970 -78c8 0 15 -8 15 -15c0 -3 -1 -7 -2 -9c-3 -3 -59 -89 -224 -89h-17c-168 6 -297 82 -469 82h-1c-156 0 -196 -81 -196 -82c-3 -5 -9 -10 -15 -10c-9 0 -16 7 -16 16c0 2 1 5 2 7c2 3 30 62 125 88c-3 19 -5 51 -5 70v7v237h-75h-1c-8 0 -15 7 -15 15v61
c0 9 7 16 15 16h76v14c0 9 7 16 15 16h667c8 0 15 -7 15 -16v-14h76c8 0 15 -7 15 -16v-60c0 -9 -7 -16 -15 -16h-76v-237c0 -69 -14 -113 -33 -141c91 19 124 66 126 69c2 4 8 7 13 7zM923 284h-59v-29h59v29zM198 315v-30h635v30h-635zM107 255h59v29h-59v-29zM273 -78
c173 0 305 -76 470 -82c1 -1 13 0 15 0h24c20 13 51 49 51 147v267h-635v-266v-8c0 -17 2 -46 5 -63c18 3 47 5 66 5h3h1zM548 421c0 -9 -8 -16 -16 -16c-2 0 -6 1 -7 2c-2 1 -42 22 -42 82c0 53 31 89 31 140c0 38 -21 50 -21 51l15 27c2 -1 37 -21 37 -78
c0 -53 -30 -89 -30 -141c0 -39 23 -52 24 -53c5 -2 9 -9 9 -14zM710 629c0 -53 -30 -89 -30 -141c0 -39 20 -50 24 -53c5 -2 8 -9 8 -14c0 -8 -7 -15 -16 -15c-1 0 -4 0 -6 1s-42 22 -42 82c1 53 31 89 31 140c0 38 -20 50 -21 51l15 27c2 -1 37 -21 37 -78zM382 421
c0 -9 -8 -16 -16 -16c-2 0 -5 1 -7 2c-1 1 -41 22 -41 82c0 54 30 89 30 141c0 37 -17 47 -20 50c-4 2 -8 8 -8 13c0 8 7 16 16 16c2 0 5 -1 7 -2c1 -1 37 -21 37 -77c0 -54 -31 -90 -31 -142c0 -39 24 -52 25 -53c4 -2 8 -9 8 -14z" />
    <glyph glyph-name="Q" unicode="Q" horiz-adv-x="1053" 
d="M987 -78c9 0 16 -8 16 -16c0 -2 -1 -6 -3 -8c-2 -4 -59 -90 -224 -90c-179 0 -308 82 -485 83h-2c-154 0 -194 -79 -196 -82c-3 -5 -9 -9 -14 -9c-9 0 -16 7 -16 16c0 2 1 5 2 7c1 4 49 99 224 99h2c128 0 234 -41 343 -65l-15 125h-540c-9 0 -16 7 -16 15v666
c0 9 7 16 16 16h236l86 86c2 3 7 5 11 5c3 0 8 -2 11 -5l86 -86h236c9 0 16 -7 16 -16v-418c4 4 7 9 14 10h6h1l2 -1h1l1 -1c1 -1 2 -1 2 -2c22 -19 43 -59 48 -87c18 19 52 45 75 57h3h6c4 0 12 -4 12 -8c6 -14 11 -38 11 -53c0 -18 -7 -46 -16 -63c9 0 15 -7 15 -15v-2
l-24 -210c39 20 55 43 56 45c3 4 8 7 13 7zM664 97h58c-15 44 -54 73 -76 86c-1 -6 -2 -16 -2 -22c0 -19 9 -48 20 -64zM669 406l-1 183h-210v-183h211zM367 284v-129l59 -59v188h-59zM426 316v59h-228l37 -59h191zM335 406v30h-68l-29 -30h97zM367 406h59v159l-59 -60v-99z
M155 396c2 6 8 10 14 10h1h23l56 56c2 3 7 5 11 5h75v45c0 3 2 8 5 11l67 67h-252v-194zM155 385v-314h252l-67 66c-2 3 -4 8 -4 11v136h-109c-5 0 -11 4 -14 8l-57 91zM635 221h6c9 -3 20 -10 27 -14v168h-210v-304h151c-1 3 -1 7 -1 10c0 9 7 16 15 16h5
c-9 16 -15 45 -15 63c0 14 3 43 11 54l1 1c2 3 5 5 10 6zM641 66l3 -21h262l3 21h-268zM908 183c-21 -13 -60 -42 -75 -86h58c11 16 20 45 20 64c0 6 -1 16 -3 22zM777 216c-11 -14 -29 -41 -29 -76c0 -14 2 -28 8 -43h42c6 15 9 29 9 42c0 35 -18 63 -30 77zM412 732
l-53 -53h106zM94 13h522l-3 26h-474c-8 0 -15 7 -15 16v550c0 9 7 16 15 16h545c9 0 16 -7 16 -16v-422c5 -5 14 -14 19 -20c2 10 6 25 10 34v451h-635v-635zM666 -149c33 -7 77 -12 112 -12c30 0 78 8 107 17l18 158h-256zM926 315c-8 0 -15 7 -15 15c0 9 7 16 15 16h15v15
c0 8 7 15 16 15c8 0 15 -7 15 -15v-15h15c9 0 16 -7 16 -16c0 -8 -7 -15 -16 -15h-15v-15c0 -9 -7 -16 -15 -16c-9 0 -16 7 -16 16v15h-15zM850 436h-14c-9 0 -16 7 -16 15c0 9 7 16 16 16h14v15c0 8 7 15 16 15s16 -7 16 -15v-15h14c9 0 16 -7 16 -16c0 -8 -7 -15 -16 -15
h-14v-15c0 -9 -7 -16 -16 -16s-16 7 -16 16v15z" />
    <glyph glyph-name="R" unicode="R" horiz-adv-x="1133" 
d="M973 638c59 0 97 -38 97 -96v-575c0 -78 -19 -167 -167 -167h-666c-148 0 -167 89 -167 167v575c0 58 38 96 97 96c56 0 116 -37 116 -96v-14h574v14c0 59 60 96 116 96zM888 15c19 17 56 32 84 32h1h2c19 0 48 -9 64 -19v514c0 60 -51 64 -66 64c-41 0 -85 -25 -85 -64
v-527zM168 47c28 0 65 -15 84 -32v527c0 38 -44 64 -85 64c-15 0 -66 -4 -66 -64v-514c16 11 45 19 64 19h2h1zM252 -63c0 47 -37 79 -84 79h-1c-32 0 -66 -15 -66 -49c0 -81 23 -136 136 -136h666c113 0 136 55 136 136c0 34 -34 49 -66 49h-1c-46 0 -84 -32 -84 -79
c0 -9 -7 -16 -15 -16c-9 0 -16 7 -16 16v559h-574v-559c0 -9 -7 -16 -16 -16c-8 0 -15 7 -15 16zM812 -20c9 0 15 -8 15 -16c0 -2 0 -5 -1 -7c-2 -3 -34 -61 -128 -61h-8c-89 3 -153 55 -242 55h-1c-78 0 -104 -49 -105 -51c-3 -5 -9 -8 -14 -8c-8 0 -15 7 -15 16
c0 1 0 4 1 6c11 20 38 44 59 53v242c0 6 4 12 8 14l182 91c2 1 5 2 7 2s5 -1 7 -2l182 -91c4 -2 8 -8 8 -14v-265c11 5 24 18 31 28c2 4 9 8 14 8zM525 -29c31 -8 60 -20 90 -29v100h-90v-71zM646 -67c15 -3 36 -6 53 -6c11 0 28 2 38 4c-1 2 -1 4 -1 6v263l-166 82
l-166 -82v-222c11 3 30 5 42 5h1h1c13 0 33 -2 46 -4v79c0 9 7 16 15 16h122c8 0 15 -7 15 -16v-121v-4zM358 405c-9 0 -16 7 -16 16s7 16 16 16h394c8 0 15 -7 15 -16s-7 -16 -15 -16h-394zM358 345c-9 0 -16 7 -16 16c0 8 7 15 16 15h121c9 0 16 -7 16 -15
c0 -9 -7 -16 -16 -16h-121zM600 195c9 0 16 -7 16 -16s-7 -16 -16 -16h-14v-45c0 -8 -7 -15 -16 -15s-16 7 -16 15v45h-14c-9 0 -16 7 -16 16s7 16 16 16h14v14c0 9 7 16 16 16s16 -7 16 -16v-14h14z" />
    <glyph glyph-name="S" unicode="S" horiz-adv-x="1031" 
d="M969 -78c9 0 16 -8 16 -16c0 -2 -1 -6 -3 -8c-2 -4 -59 -90 -224 -90c-178 0 -308 82 -485 83h-2c-154 0 -194 -79 -196 -82c-3 -5 -9 -9 -14 -9c-9 0 -16 7 -16 16c0 2 1 5 2 6c1 3 22 46 89 75v887c0 9 7 16 16 16h726v0c9 0 16 -7 16 -16v-917c43 21 61 46 62 48
c3 4 8 7 13 7zM862 769h-695v-241h695v241zM271 -78l2 1c15 -1 30 -1 44 -2v31h-59v-30h13zM469 -106v57h-59v-44c20 -4 39 -8 59 -13zM742 -160c5 0 13 -1 18 -1c29 0 75 7 102 15v642h-695v-588c17 5 43 10 60 12v47c0 8 7 15 15 15h91c9 0 16 -7 16 -15v-50
c10 -1 20 -2 29 -4v54c0 9 7 16 16 16h91c8 0 15 -7 15 -16v-81c10 -3 20 -5 29 -8v89c0 9 7 16 16 16h91c9 0 16 -7 16 -16v-90c0 -9 -7 -16 -16 -16h-36c38 -10 102 -19 142 -21zM561 -108h59v59h-59v-59zM212 557c-9 0 -16 7 -16 15v152c0 8 7 15 16 15h605
c9 0 16 -7 16 -15v-152c0 -8 -7 -15 -16 -15h-605zM228 708v-120h574v120h-574zM333 437c9 0 16 -7 16 -16v-91c0 -8 -7 -15 -16 -15h-91c-8 0 -15 7 -15 15v91c0 9 7 16 15 16h91zM317 346v59h-59v-59h59zM485 437c8 0 15 -7 15 -16v-91c0 -8 -7 -15 -15 -15h-91
c-9 0 -16 7 -16 15v91c0 9 7 16 16 16h91zM469 346v59h-59v-59h59zM636 437c9 0 16 -7 16 -16v-91c0 -8 -7 -15 -16 -15h-91c-9 0 -16 7 -16 15v91c0 9 7 16 16 16h91zM620 346v59h-59v-59h59zM787 437c9 0 16 -7 16 -16v-91c0 -8 -7 -15 -16 -15h-91c-8 0 -15 7 -15 15v91
c0 9 7 16 15 16h91zM772 346v59h-60v-59h60zM333 285c9 0 16 -7 16 -15v-91c0 -9 -7 -16 -16 -16h-91c-8 0 -15 7 -15 16v91c0 8 7 15 15 15h91zM317 195v59h-59v-59h59zM485 285c8 0 15 -7 15 -15v-91c0 -9 -7 -16 -15 -16h-91c-9 0 -16 7 -16 16v91c0 8 7 15 16 15h91z
M469 195v59h-59v-59h59zM636 285c9 0 16 -7 16 -15v-91c0 -9 -7 -16 -16 -16h-91c-9 0 -16 7 -16 16v91c0 8 7 15 16 15h91zM620 195v59h-59v-59h59zM787 285c9 0 16 -7 16 -15v-91c0 -9 -7 -16 -16 -16h-91c-8 0 -15 7 -15 16v91c0 8 7 15 15 15h91zM772 195v59h-60v-59h60
zM333 134c9 0 16 -7 16 -16v-90c0 -9 -7 -16 -16 -16h-91c-8 0 -15 7 -15 16v90c0 9 7 16 15 16h91zM317 43v59h-59v-59h59zM485 134c8 0 15 -7 15 -16v-90c0 -9 -7 -16 -15 -16h-91c-9 0 -16 7 -16 16v90c0 9 7 16 16 16h91zM469 43v59h-59v-59h59zM636 134
c9 0 16 -7 16 -16v-90c0 -9 -7 -16 -16 -16h-91c-9 0 -16 7 -16 16v90c0 9 7 16 16 16h91zM620 43v59h-59v-59h59zM787 134c9 0 16 -7 16 -16v-242c0 -9 -7 -16 -16 -16h-91c-8 0 -15 7 -15 16v242c0 9 7 16 15 16h91zM772 -108v211h-60v-211h60z" />
    <glyph glyph-name="T" unicode="T" horiz-adv-x="916" 
d="M586 -195c-94 0 -158 55 -250 55v0c-78 0 -105 -49 -106 -51c-2 -5 -8 -9 -14 -9c-8 0 -15 7 -15 16c0 2 0 5 1 7c2 3 35 69 133 69h1c8 0 15 -1 23 -1l83 112v101h-268c-52 0 -95 51 -95 112v422c0 3 2 7 3 9h-17c-9 0 -16 7 -16 16v61c0 8 7 15 16 15h377v45
c0 9 8 16 16 16c9 0 16 -7 16 -16v-45h378v0c8 0 15 -7 15 -15v-61c0 -8 -7 -15 -15 -15h-18c2 -3 3 -7 3 -10v-422c0 -62 -42 -112 -95 -112h-268v-102l112 -166c74 0 99 43 100 45c3 4 9 8 14 8c9 0 16 -7 16 -16c0 -2 -1 -5 -2 -7c-1 -3 -34 -61 -128 -61zM442 -50
l-48 -65c13 -3 35 -9 48 -13v78zM545 -160l-71 106v-85c19 -8 51 -17 71 -21zM806 638c0 3 1 7 2 9h-700c1 -2 2 -6 2 -9v-422c0 -44 29 -80 64 -80h568c35 0 64 36 64 80v422zM836 679v29h-756v-29h756zM216 557c-9 0 -16 7 -16 15c0 9 7 16 16 16h484c9 0 16 -7 16 -16
c0 -8 -7 -15 -16 -15h-484zM216 466c-9 0 -16 7 -16 15c0 9 7 16 16 16h484c9 0 16 -7 16 -16c0 -8 -7 -15 -16 -15h-484zM216 375c-9 0 -16 7 -16 16c0 8 7 15 16 15h484c9 0 16 -7 16 -15c0 -9 -7 -16 -16 -16h-484zM216 284c-9 0 -16 7 -16 16c0 8 7 15 16 15h484h1
c9 0 16 -7 16 -15c0 -9 -7 -16 -16 -16h-1h-484zM216 193c-9 0 -16 7 -16 16s7 16 16 16h333c9 0 16 -7 16 -16s-7 -16 -16 -16h-333z" />
    <glyph glyph-name="U" unicode="U" horiz-adv-x="1031" 
d="M969 -78c9 0 16 -8 16 -16c0 -2 -2 -6 -3 -8c-3 -4 -60 -90 -224 -90c-179 0 -308 82 -486 82h-1c-155 0 -195 -78 -197 -81c-2 -5 -8 -9 -13 -9c-9 0 -16 8 -16 16c0 2 1 5 1 6c2 4 49 100 225 100h16v681c0 1 0 4 1 6h-157c-9 0 -16 7 -16 15v50l-38 73c-1 2 -2 5 -2 7
c0 9 7 16 16 16h484c9 0 16 -7 16 -16c0 -2 -1 -5 -2 -7l-39 -73v-50c0 -8 -7 -15 -15 -15h-157c0 -2 1 -5 1 -6v-690c51 -9 98 -22 145 -34l-24 345h-16c-8 0 -15 7 -16 15v61c0 8 8 15 16 15h79c12 32 50 58 85 58c11 0 29 -4 39 -9c12 22 42 40 67 40c21 0 49 -15 62 -32
c3 1 10 1 14 1c32 0 59 -26 60 -58h48c9 0 16 -7 16 -15v-60c0 -9 -7 -16 -16 -16h-15l-25 -355c40 20 56 44 58 46c2 4 8 7 13 7zM549 738h-432l23 -44h385zM147 663v-23h372v23h-372zM317 609c1 -2 1 -5 1 -6v-683c10 -1 20 -2 29 -3v686c0 2 1 4 2 6h-32zM830 342
c-8 0 -14 -5 -21 -5c-6 0 -12 4 -14 9c-7 15 -25 27 -41 27c-20 0 -39 -16 -44 -35c-1 -7 -8 -13 -15 -13c-3 0 -8 2 -10 4c-9 7 -26 13 -37 13c-18 0 -40 -12 -50 -27h261c-1 15 -15 27 -29 27zM500 284v-29h423v29h-423zM557 -129c66 -17 128 -32 203 -32
c29 0 76 8 105 17l26 368h-360zM636 405c-26 0 -46 21 -46 46c0 26 20 46 46 46c25 0 45 -20 45 -46c0 -25 -20 -46 -45 -46zM621 451c0 -8 6 -14 15 -14c8 0 14 6 14 14s-6 15 -14 15c-9 0 -15 -7 -15 -15zM680 527c0 34 28 61 61 61c34 0 62 -27 62 -61s-28 -61 -62 -61
c-33 0 -61 27 -61 61zM741 557c-16 0 -29 -14 -29 -30s13 -30 29 -30c17 0 30 14 30 30s-13 30 -30 30z" />
    <glyph glyph-name="V" unicode="V" horiz-adv-x="824" 
d="M544 -111c9 0 16 -8 16 -16c0 -2 -1 -5 -2 -7c-1 -3 -34 -62 -127 -62c-95 0 -159 56 -251 56v0c-78 0 -105 -49 -106 -51c-2 -5 -8 -8 -13 -8c-9 0 -16 7 -16 15c0 2 1 5 1 7c1 2 25 48 89 64v427h-14c-9 0 -16 7 -16 16v61c0 8 7 15 16 15h16c3 34 30 75 59 92
c23 14 64 27 91 29v29h-8c-13 0 -23 12 -23 26v70c0 15 10 27 23 27h47c13 0 22 -12 22 -27v-70c0 -14 -9 -26 -22 -26h-8v-29c27 -2 68 -15 91 -29c29 -17 56 -58 60 -92h15c9 0 16 -7 16 -16v-60c0 -9 -7 -16 -16 -16h-14v-474c44 12 60 40 60 40c3 5 9 9 14 9zM288 647
v-59h29v59h-29zM167 163v-120h271v120h-271zM137 375v-30h331v30h-331zM302 496c-43 0 -124 -19 -134 -90h269c-11 71 -91 90 -135 90zM438 314h-271v-120h271v120zM180 -108c93 0 156 -53 244 -56h14v176h-271v-121c4 1 8 1 12 1h1zM397 648c-10 -3 -19 6 -19 15
c0 7 5 13 11 15l364 91h4c8 0 15 -7 15 -15c0 -7 -5 -14 -12 -15zM760 466c7 -1 13 -8 13 -15c0 -9 -7 -16 -16 -16c-1 0 -3 0 -4 1l-363 91c-6 1 -11 8 -11 15c0 8 7 15 15 15h3zM393 587c-8 0 -15 7 -15 15c0 9 7 16 15 16h364c8 0 15 -7 15 -16c0 -8 -7 -15 -15 -15h-364
z" />
    <glyph glyph-name="W" unicode="W" horiz-adv-x="1067" 
d="M534 756c264 0 478 -215 478 -478c0 -264 -215 -478 -479 -478s-479 214 -479 478c0 263 215 478 480 478zM534 -169c247 0 448 200 448 447c0 246 -201 446 -448 446c-248 0 -449 -200 -449 -446s201 -447 449 -447zM936 278c0 -222 -181 -402 -403 -402
s-402 180 -402 402s180 402 402 402s402 -181 403 -402zM875 134c5 11 11 29 15 40l-222 58zM535 173c58 0 105 47 105 105v0c0 58 -47 105 -105 105s-105 -47 -105 -105s47 -105 105 -105zM604 396l131 193c-12 8 -32 19 -45 25zM575 408l86 218c-28 10 -75 20 -104 22
v-236c5 0 13 -2 18 -4zM671 263l226 -58c4 20 7 52 7 72c0 36 -9 92 -22 126l-216 -88c3 -10 6 -27 6 -37c0 -4 -1 -11 -1 -15zM871 432c-21 46 -71 108 -110 139l-132 -194c8 -8 19 -22 25 -32zM163 278c0 -205 166 -371 370 -371c25 0 65 5 89 11l-64 225
c-7 -1 -17 -2 -23 -2c-75 0 -137 61 -137 137c0 70 57 131 127 136v234c-200 -4 -362 -170 -362 -370zM653 -73c77 26 171 106 209 178l-211 100c-13 -20 -41 -44 -63 -53z" />
    <glyph glyph-name="X" unicode="X" horiz-adv-x="1003" 
d="M941 54c0 -1 -1 -3 -1 -4c0 -3 -2 -5 -4 -7l-238 -238c-3 -3 -6 -5 -11 -5h-597c-8 0 -15 7 -15 15v686c0 8 7 15 15 15h134v45c0 25 20 45 45 45s46 -20 46 -45v-44h386v44c0 25 20 45 45 45s46 -20 46 -45v-44h133c9 0 16 -7 16 -16v-447zM702 39v-186l186 186h-186z
M732 561v-119c1 -8 7 -14 14 -14c8 0 14 6 15 14v119c-1 7 -7 13 -15 13c-7 0 -13 -6 -14 -13zM255 561v-119v-1c0 -8 6 -15 14 -15s15 7 15 15v1v119c-1 7 -7 13 -15 13c-7 0 -14 -6 -14 -13zM224 485h-118v-117h804v118h-118v-44c0 -25 -20 -46 -45 -46s-46 21 -46 46v44
h-386v-44c0 -25 -21 -46 -46 -46s-45 21 -45 46v43zM106 337v-506h565v59h-461c-9 0 -16 7 -16 15c0 9 7 16 16 16h461v88h-461c-9 0 -16 7 -16 15c0 9 7 16 16 16h461v14c0 9 7 16 16 16h223v267h-804zM210 247c-9 0 -16 7 -16 16c0 8 7 15 16 15h596c9 0 16 -7 16 -15
c0 -9 -7 -16 -16 -16h-596zM210 128c-9 0 -16 7 -16 15c0 9 7 16 16 16h596c9 0 16 -7 16 -16c0 -8 -7 -15 -16 -15h-596z" />
    <glyph glyph-name="Y" unicode="Y" horiz-adv-x="1035" 
d="M969 -78c9 0 15 -8 15 -16c0 -2 -1 -6 -2 -8c-3 -4 -60 -90 -224 -90c-179 0 -308 82 -486 83h-1c-155 0 -195 -79 -197 -82c-2 -5 -8 -8 -13 -8c-9 0 -16 7 -16 15c0 2 1 5 1 6c1 3 23 46 90 76v326h-15c-9 0 -16 7 -16 15v91c0 9 7 16 16 16h171c-21 13 -39 30 -47 49
c-3 7 -5 15 -5 22c0 16 7 31 21 45c17 18 33 23 46 23c5 0 10 -1 14 -2c36 -11 60 -62 74 -102c17 40 45 92 84 102c4 1 8 2 13 2c13 0 30 -5 47 -23c14 -14 21 -29 21 -45c0 -7 -1 -15 -4 -22c-8 -19 -26 -36 -48 -49h158c9 0 16 -7 16 -16v-90c0 -9 -7 -16 -16 -16h-14
v-374c31 -6 73 -10 106 -10c148 0 197 74 198 75c2 4 8 7 13 7zM650 255v59h-180v-59h180zM349 255h89v59h-89v-59zM438 224h-90v-307c25 -3 66 -10 90 -16v323zM492 454c-1 0 -5 -1 -5 -1c-28 -7 -56 -63 -72 -107c41 4 100 32 112 61c1 3 2 6 2 10c0 6 -3 14 -12 23
c-11 11 -20 14 -25 14zM274 407c10 -26 59 -51 99 -59c-13 45 -37 98 -61 105h-5c-5 0 -13 -2 -24 -13c-9 -9 -12 -17 -12 -23c0 -4 1 -7 3 -10zM137 315v-60h180v60h-180zM266 -78c18 0 34 0 51 -2v304h-150v-315c27 7 71 13 99 13zM470 224v-330c49 -13 100 -27 150 -38
v368h-150zM862 -3c0 103 -61 130 -61 236v1c0 28 9 73 19 99c4 12 9 30 11 42h-14c-9 0 -16 7 -16 16c0 31 -13 47 -32 69c-26 31 -58 69 -58 156c0 94 47 184 136 184s137 -90 137 -184c0 -85 -32 -124 -58 -154c-18 -23 -33 -40 -33 -71c0 -9 -7 -16 -15 -16v0h-16
c-2 -15 -7 -38 -13 -52c-9 -24 -16 -64 -16 -89v-1c0 -102 60 -129 60 -236c0 -8 -7 -15 -15 -15c-9 0 -16 7 -16 15zM847 769c-50 0 -105 -48 -105 -153c0 -76 26 -106 51 -136c17 -20 34 -41 39 -74h31c4 34 22 55 39 76c25 29 51 60 51 134c0 105 -55 153 -106 153z
M545 587c-9 0 -16 7 -16 16c0 8 7 15 16 15h14v15c0 9 7 16 16 16s16 -7 16 -16v-15h14c9 0 16 -7 16 -15c0 -9 -7 -16 -16 -16h-14v-15c0 -8 -7 -15 -16 -15s-16 7 -16 15v15h-14zM454 708c-9 0 -16 7 -16 16c0 8 7 15 16 15h14v15c0 9 7 16 16 16s16 -7 16 -16v-15h14
c9 0 16 -7 16 -15c0 -9 -7 -16 -16 -16h-14v-15c0 -8 -7 -15 -16 -15s-16 7 -16 15v15h-14zM121 466c-9 0 -16 7 -16 16c0 8 7 15 16 15h14v15c0 9 7 16 16 16s16 -7 16 -16v-15h15c8 0 15 -7 15 -15c0 -9 -7 -16 -15 -16h-15v-15c0 -8 -7 -15 -16 -15c-8 0 -15 7 -15 15v15
h-15z" />
    <glyph glyph-name="Z" unicode="Z" horiz-adv-x="666" 
d="M257 11c-13 2 -26 13 -26 29c0 11 5 22 11 31c-68 10 -116 53 -141 128c-21 64 -23 140 -23 199h-14c-9 0 -16 7 -16 16c0 8 7 15 16 15h126c-16 24 -30 68 -30 97c0 96 77 173 173 173c95 0 172 -77 172 -173c0 -29 -14 -73 -30 -97h127v0c8 0 15 -7 15 -16
c0 -8 -7 -15 -15 -15h-15c0 -59 -2 -135 -23 -199c-25 -75 -73 -118 -141 -128c6 -10 11 -20 11 -31c0 -16 -13 -27 -26 -29c1 -52 23 -131 50 -176h1c73 0 98 43 99 45c2 4 8 7 13 7c8 0 15 -7 15 -15c0 -2 0 -5 -1 -7c-2 -3 -34 -61 -126 -61c-94 0 -157 55 -248 55v0
c-78 0 -104 -50 -104 -50c-2 -5 -9 -10 -14 -10c-9 0 -16 7 -16 16c0 2 1 5 2 7c2 3 35 69 132 69h1c7 -1 14 -1 22 -2c12 33 22 87 23 122zM191 526h1v-1c0 -30 17 -74 38 -96h87v89h-44c-8 0 -15 7 -15 15c0 9 7 16 15 16h44v44c0 8 7 15 16 15c8 0 15 -7 15 -15v-44h44
c9 0 16 -7 16 -16c0 -8 -7 -15 -16 -15h-44v-89h87c21 23 38 66 38 97c0 78 -63 141 -141 141c-77 0 -141 -63 -141 -141v0zM377 9h-89c0 -8 -1 -18 -2 -29h93c-1 11 -2 21 -2 29zM265 -115c52 -12 103 -36 156 -46c-16 29 -33 78 -38 110h-101c-3 -18 -10 -47 -17 -64z
M534 209h1c19 59 21 132 21 189h-447c0 -57 2 -130 22 -189c24 -73 71 -109 142 -109h1c8 0 15 -7 15 -15c0 -4 -2 -9 -5 -12c-11 -11 -21 -25 -22 -32c3 0 7 -1 10 -1h1h120h1c3 0 7 1 10 1c-1 7 -12 22 -22 33c-3 2 -5 7 -5 11c0 8 7 15 15 15c72 0 118 36 142 109z
M333 727c-9 0 -16 7 -16 15v30c0 9 7 16 16 16c8 0 15 -7 15 -16v-30c0 -8 -7 -15 -15 -15zM437 700c-9 0 -15 8 -15 16c0 2 1 6 2 8l15 26c2 4 8 7 13 7c9 0 16 -7 16 -15c0 -3 -1 -6 -2 -8l-16 -26c-2 -4 -8 -8 -13 -8zM511 631c-8 0 -15 7 -15 16c0 5 3 11 8 13l25 15
c2 1 6 2 8 2c9 0 16 -7 16 -16c0 -5 -4 -11 -8 -13l-26 -15c-2 -1 -5 -2 -8 -2v0zM531 536c0 8 7 15 16 15h29c9 0 16 -7 16 -16c0 -8 -7 -15 -16 -15h-29c-9 0 -16 7 -16 16zM212 708l-15 25c-1 3 -2 6 -2 9c0 8 7 15 15 15c5 0 11 -3 14 -7l15 -26c1 -2 2 -5 2 -8
c0 -8 -7 -15 -15 -15c-5 0 -11 3 -14 7zM118 648c-5 2 -8 8 -8 13c0 9 7 16 15 16c3 0 6 -1 8 -2l26 -15c4 -2 8 -8 8 -13c0 -9 -7 -16 -16 -16c-2 0 -5 1 -7 2zM86 520c-9 0 -16 7 -16 15c0 9 7 16 16 16h30v0c8 0 15 -7 15 -15c0 -9 -7 -16 -15 -16h-30z" />
    <glyph glyph-name="a" unicode="a" horiz-adv-x="1030" 
d="M969 -78c9 0 15 -8 15 -16c0 -2 -1 -6 -2 -8c-2 -4 -59 -90 -224 -90h-17c-168 6 -297 82 -469 83h-1c-155 0 -195 -79 -197 -82c-2 -5 -8 -8 -13 -8c-9 0 -16 7 -16 15c0 2 1 5 1 6c1 3 23 46 89 75v403c0 8 7 15 16 15h75v32c-27 9 -45 39 -45 81c0 57 49 95 52 96
c2 2 6 4 9 4c9 0 16 -7 16 -16c0 -59 45 -41 45 -101c0 -21 -15 -55 -46 -64v-32h60v227c0 9 7 16 15 16h76v31c-28 8 -46 39 -46 81c0 58 50 95 52 97c2 1 6 3 9 3c9 0 16 -7 16 -16c0 -59 45 -41 45 -101c0 -20 -15 -55 -45 -64v-31h76c8 0 15 -7 15 -16v-75h59v31
c-27 8 -46 39 -46 81c0 58 50 95 52 97s6 3 9 3c9 0 16 -7 16 -16v0c0 -59 45 -41 45 -101c0 -20 -15 -54 -44 -64v-31h75c9 0 16 -7 16 -16v-226h59v31c-27 9 -45 40 -45 81c0 58 50 95 52 97s6 3 9 3c9 0 16 -7 16 -16v0c0 -59 45 -41 45 -101c0 -20 -15 -55 -45 -64v-31
h75c9 0 16 -7 16 -16v-342c43 21 60 46 62 48c2 4 8 7 13 7zM213 428c0 -21 7 -52 29 -52c19 0 30 25 30 35c0 16 -6 21 -15 30c-10 8 -22 25 -26 37c-10 -12 -18 -35 -18 -50zM317 -80v198v166h-150v-375c27 7 71 13 99 13h5h1c16 0 31 -1 45 -2zM394 670
c0 -21 8 -52 29 -52c20 0 30 25 30 35c0 17 -5 22 -15 30c-10 9 -22 25 -26 37c-9 -12 -18 -34 -18 -50zM499 -114v640h-151v-609c43 -6 110 -20 151 -31zM575 579c0 -21 8 -51 29 -51c20 0 30 24 30 34c0 17 -5 22 -15 31c-10 8 -22 24 -26 37c-9 -13 -18 -35 -18 -51z
M680 -155v591h-150v-558c50 -13 99 -26 150 -33zM758 337c0 -21 7 -52 29 -52c20 0 30 25 30 35c0 17 -5 22 -15 30c-10 9 -22 25 -26 37c-10 -12 -18 -34 -18 -50zM712 -158c15 -2 31 -3 48 -3c29 0 74 7 102 15v339h-150v-351z" />
    <glyph glyph-name="b" unicode="b" horiz-adv-x="1063" 
d="M1000 -78c9 0 16 -8 16 -16c0 -2 -1 -6 -2 -8c-3 -4 -60 -90 -225 -90h-17c-168 6 -297 83 -470 83c-154 0 -194 -79 -196 -82c-2 -5 -9 -8 -14 -8c-8 0 -15 7 -15 15c0 2 0 5 1 6c1 4 34 70 145 93l-55 137v0c0 1 -1 4 -1 6c0 8 7 15 16 15h54c75 70 224 85 338 85
c62 0 113 -5 139 -7c7 41 48 74 90 74c50 0 91 -41 91 -91c0 -19 -10 -46 -23 -61h37c9 0 16 -7 16 -15c0 -2 -1 -6 -2 -7l-105 -210c124 8 167 71 169 74c3 4 8 7 13 7zM803 193c-33 0 -60 -26 -60 -60c0 -33 27 -60 60 -60s60 27 60 60c0 34 -27 60 -60 60zM713 119
c-23 3 -76 7 -139 7c-94 0 -211 -10 -284 -53h445c-10 11 -20 32 -22 46zM304 -78c172 -1 304 -77 469 -82h10l101 202h-678l49 -122c13 1 34 2 46 2h3zM167 542c0 52 -53 106 -105 106l-1 -1c-9 0 -16 8 -16 16c0 9 7 16 16 16h1c52 0 105 53 105 105c0 8 8 15 16 15
s15 -7 15 -15c0 -52 54 -105 106 -105c8 -1 15 -8 15 -16s-7 -15 -15 -15c-52 0 -106 -54 -106 -106c0 -8 -7 -15 -15 -15s-16 7 -16 15zM183 726c-13 -22 -41 -51 -63 -63c22 -12 50 -40 63 -62c12 22 40 50 62 62c-22 13 -50 41 -62 63zM546 284c-4 0 -9 2 -11 5l-273 272
c-2 3 -4 8 -4 12c0 8 7 15 16 15c3 0 8 -2 11 -4l272 -273c3 -2 5 -7 5 -11c0 -9 -7 -16 -16 -16zM288 603c0 9 8 15 16 15c2 0 6 -1 9 -2l272 -182c2 -3 4 -8 4 -11c0 -9 -7 -16 -15 -16c-2 0 -5 1 -6 1l-273 182c-4 3 -7 8 -7 13zM228 542c0 8 6 16 15 16c5 0 11 -3 14 -8
c37 -59 179 -269 181 -271c2 -3 3 -7 3 -10c0 -9 -7 -16 -16 -16c-5 0 -11 4 -13 8c-2 2 -144 213 -182 273c-1 2 -2 6 -2 8z" />
    <glyph glyph-name="c" unicode="c" horiz-adv-x="624" 
d="M549 527c-141 0 -226 -85 -226 -227c-1 -8 -8 -15 -16 -15s-15 7 -16 15c0 142 -84 226 -226 226c-9 0 -16 7 -16 16s7 16 16 16c142 0 226 85 227 226c0 9 7 15 15 15s15 -6 16 -15c0 -141 85 -226 226 -226h2c8 0 15 -7 15 -16s-7 -16 -15 -16c-1 0 -1 0 -2 1zM307 402
c19 58 82 121 141 140c-28 9 -67 33 -88 53c-20 21 -44 60 -53 88c-9 -28 -33 -67 -53 -88c-21 -20 -60 -44 -88 -53c59 -19 122 -82 141 -140zM216 407c9 0 16 -8 16 -16c0 -1 0 -3 -1 -4l-151 -575c-1 -7 -8 -13 -15 -13c-9 0 -16 7 -16 16c0 1 0 3 1 5l151 575
c2 6 9 12 15 12zM413 395l151 -575c1 -1 1 -3 1 -3c0 -9 -7 -16 -16 -16c-6 0 -13 5 -15 11l-151 575c-1 1 -1 3 -1 5c0 8 7 15 16 15c7 0 14 -5 15 -12zM247 255c8 0 15 -8 15 -15v-3l-61 -333c-1 -8 -8 -13 -17 -13c-8 0 -14 9 -14 15c0 1 0 3 1 3l60 333c1 7 8 13 16 13z
M444 -93c0 -8 -6 -16 -14 -16c-9 0 -16 5 -17 13l-61 333v2c0 8 7 15 16 15c7 0 13 -5 15 -12l61 -333v-2zM323 239v-423c-1 -8 -8 -15 -16 -15s-15 7 -16 15v424c0 8 7 15 16 15s16 -7 16 -16z" />
    <glyph glyph-name="d" unicode="d" horiz-adv-x="1078" 
d="M555 364c-17 0 -28 33 -68 33c-10 0 -20 -4 -29 -13c-27 -26 -69 -51 -115 -51h-1c-7 0 -18 1 -25 2c-42 9 -78 40 -108 92c-6 1 -40 25 -88 25c-14 0 -28 -2 -41 -9c-2 0 -5 -1 -7 -1c-5 0 -12 4 -14 8c-1 2 -8 17 -8 40c0 30 11 72 57 119c3 2 8 4 12 4
c5 0 11 -4 14 -8c0 -1 21 -42 61 -52c-8 17 -14 36 -14 59c0 60 41 110 68 137c27 26 82 51 120 51c9 0 16 -7 16 -16c0 -13 -17 -23 -17 -63c0 -21 6 -44 28 -66c43 -43 66 -66 66 -109v-7h12c19 0 42 -4 62 -24s20 -48 20 -73c0 -21 0 -40 11 -51c2 -3 4 -8 4 -11
c0 -9 -7 -16 -16 -16zM187 471c-2 5 -6 12 -6 18c0 9 7 16 16 16c6 0 13 -5 15 -11c29 -75 66 -119 111 -128c7 -2 13 -2 19 -2c37 0 73 22 93 42c15 15 32 22 51 22c12 0 25 -3 38 -9v23c0 20 0 40 -11 51c-12 12 -27 15 -39 15c-7 0 -13 -1 -17 -2c-3 -12 -8 -49 -26 -49
c-9 0 -16 7 -16 16c0 1 1 4 1 5c10 29 15 50 15 66c0 31 -18 49 -58 89c-28 28 -37 60 -37 89c0 15 3 30 7 43c-13 -3 -33 -10 -45 -17v-1v-15c0 -43 8 -85 49 -117c4 -3 7 -9 7 -13c0 -9 -7 -16 -16 -16c-3 0 -8 2 -11 4c-47 38 -59 88 -60 133c-8 -9 -20 -24 -27 -33
c9 -31 10 -79 58 -116c3 -3 6 -9 6 -13c0 -8 -7 -15 -16 -15c-3 0 -7 1 -9 3c-36 28 -53 67 -61 96c-3 -9 -5 -24 -5 -34c0 -4 0 -10 1 -14c6 -46 45 -88 115 -126c5 -2 9 -8 9 -14c0 -8 -7 -15 -16 -15c-2 0 -6 1 -8 2c-43 23 -76 48 -98 76h-3c-49 0 -80 31 -96 52
c-28 -34 -35 -62 -35 -82c0 -4 1 -8 1 -12c13 4 26 6 38 6c25 0 49 -6 66 -13zM1006 -140c8 0 15 -7 15 -16c0 -5 -3 -11 -8 -14c-27 -15 -59 -30 -99 -30c-92 0 -153 61 -242 61s-150 -61 -242 -61s-153 61 -242 61c-24 -1 -63 -7 -86 -14c-1 0 -3 -1 -4 -1
c-9 0 -16 7 -16 16c0 7 5 13 12 15c25 8 67 14 94 15c92 0 153 -61 242 -61s150 61 242 61s153 -61 242 -61c32 0 61 14 84 27c2 1 5 2 8 2zM429 -139c-92 0 -153 60 -242 60c-24 -1 -62 -7 -86 -14h-4c-8 0 -15 7 -15 16c0 6 5 13 11 15c26 7 68 14 94 14
c92 0 153 -60 242 -60s150 60 242 60c93 0 154 -60 243 -60c32 0 60 13 83 26c2 1 6 2 8 2c9 0 16 -7 16 -16c0 -5 -4 -11 -8 -13c-27 -15 -60 -30 -99 -30c-93 0 -154 60 -243 60c-88 0 -150 -60 -242 -60zM672 13c92 0 153 -61 242 -61c32 0 60 14 84 27c2 1 5 2 7 2
c9 0 16 -7 16 -16c0 -5 -3 -11 -8 -14c-27 -15 -60 -30 -99 -30c-92 0 -153 61 -242 61s-150 -61 -242 -61s-154 61 -242 61c-25 -1 -63 -7 -86 -14c-1 0 -3 -1 -4 -1c-9 0 -16 7 -16 16c0 7 5 13 12 15c25 8 67 14 94 15c92 0 153 -61 242 -61s150 61 242 61zM429 -18
c-92 0 -153 60 -242 60c-24 -1 -62 -7 -86 -14h-4c-8 0 -15 7 -15 16c0 6 5 13 11 15c25 7 68 14 94 14c92 0 153 -60 242 -60s150 60 242 60h18c9 73 38 122 74 122h48c-35 6 -64 39 -64 75c0 42 35 76 77 76s76 -34 76 -76c0 -36 -28 -69 -63 -75h47c46 0 71 -99 76 -173
c10 4 27 11 37 17c2 1 6 2 8 2c9 0 16 -7 16 -16c0 -5 -4 -11 -9 -13c-26 -15 -59 -30 -99 -30c-92 0 -153 60 -242 60s-150 -60 -242 -60zM824 225c24 0 44 22 44 45c0 24 -20 45 -45 45c-24 0 -44 -21 -44 -45c0 -25 20 -45 44 -45h1zM763 163c-11 0 -35 -29 -43 -95
c22 -5 57 -17 78 -26c38 -15 73 -29 115 -29c5 0 11 0 15 1c-1 29 -9 76 -18 105c-12 35 -24 44 -26 44h-121zM914 375c-8 0 -15 7 -15 16c0 3 2 8 4 11l31 30c2 3 7 5 11 5c9 0 16 -7 16 -16c0 -3 -3 -8 -5 -11l-31 -30c-2 -3 -7 -5 -11 -5zM722 380l-31 30
c-2 3 -4 8 -4 11c0 9 7 16 16 16c3 0 8 -2 11 -5l30 -30c2 -3 4 -8 4 -11c0 -9 -7 -16 -15 -16c-4 0 -9 2 -11 5zM823 405c-8 0 -15 7 -15 16v61c0 8 7 15 15 15c9 0 16 -7 16 -15v-61c0 -9 -7 -16 -16 -16zM929 300c0 9 7 16 16 16h60c9 0 16 -7 16 -16s-7 -16 -16 -16h-60
c-9 0 -16 7 -16 16zM642 284c-9 0 -16 7 -16 16s7 16 16 16h60c9 0 16 -7 16 -16s-7 -16 -16 -16h-60z" />
    <glyph glyph-name="e" unicode="e" horiz-adv-x="1039" 
d="M985 -82c4 -3 7 -9 7 -13c0 -3 -1 -7 -2 -9c-3 -3 -60 -88 -224 -88h-17c-81 3 -155 22 -226 41c-76 20 -154 40 -241 40h-2c-155 0 -195 -79 -196 -80c-2 -5 -8 -9 -14 -9c-2 0 -5 1 -7 1c-5 3 -9 9 -9 14c0 2 1 5 2 7s15 30 55 56c4 52 25 109 60 109h91
c28 0 43 -38 50 -68c19 0 36 -2 53 -4c9 89 43 149 87 149h144c55 0 86 -127 88 -218c0 0 -15 1 0 -1c11 -1 21 -2 32 -3c2 47 18 145 60 145h91c34 0 53 -60 59 -107c12 7 29 22 37 33c3 4 9 7 13 7c3 0 7 -1 9 -2zM171 -44c-5 -1 -19 -21 -26 -60c33 14 77 24 135 24
c-7 23 -15 34 -19 36h-90zM396 -90h1c46 -8 91 -20 134 -31c41 -11 81 -21 122 -29c-1 37 -11 95 -23 131c-15 42 -30 52 -33 52h-146c-18 0 -47 -43 -55 -123zM750 -161c66 -2 114 10 147 25c-1 0 -1 1 -1 1c-4 50 -22 87 -30 91h-89c-10 -6 -28 -55 -30 -117h3zM463 514
c-9 0 -15 7 -16 15c0 40 13 70 37 92c28 25 66 30 86 30c4 22 16 55 27 74c25 38 63 58 111 58c72 0 107 -37 123 -68c7 -14 15 -37 17 -52c35 -2 61 -15 78 -36c32 -41 17 -99 16 -102c-2 -6 -8 -11 -15 -11v0h-464zM504 598c-14 -12 -22 -30 -25 -53h435c2 15 2 43 -13 63
c-13 17 -36 25 -68 25v0c-9 0 -16 7 -16 16c0 4 -2 103 -109 103c-83 0 -104 -74 -109 -118c-1 -7 -8 -13 -15 -13h-2s-48 4 -78 -23zM67 425c-9 0 -16 7 -16 15c0 34 20 97 95 104c6 38 33 90 109 90h1c34 0 77 -23 96 -51c24 -34 36 -82 36 -143c0 -8 -7 -15 -16 -15v0
h-305zM160 514c-55 0 -71 -37 -76 -58h272c-4 92 -41 147 -102 147c-77 0 -78 -70 -78 -74c0 -8 -7 -15 -15 -15h-1zM524 69v0c-49 0 -88 39 -88 88s39 88 88 88c48 0 88 -39 88 -88v-1v-1c0 -22 -15 -52 -32 -67c-14 -10 -39 -19 -56 -19zM524 212v0c-32 0 -57 -26 -57 -57
s25 -56 57 -56c11 0 27 6 36 13c11 9 21 29 21 44c0 31 -26 56 -57 56v0zM676 320c2 -2 4 -7 4 -11c0 -3 -2 -8 -4 -11l-36 -35c-3 -3 -8 -5 -11 -5c-4 0 -9 2 -12 5c-2 2 -4 7 -4 11c0 3 2 8 4 11l37 35c2 3 7 5 11 5c3 0 8 -2 11 -5zM364 320c2 3 7 5 11 5c3 0 8 -2 11 -5
l36 -35c3 -3 5 -8 5 -11c0 -4 -2 -9 -5 -11c-3 -3 -7 -5 -11 -5s-9 2 -11 5l-36 35c-3 3 -5 8 -5 11c0 4 2 9 5 11zM504 381c0 8 7 15 16 15c8 0 15 -7 15 -15v-72c0 -8 -7 -15 -15 -15c-9 0 -16 7 -16 15v72zM665 151h-1c-9 0 -16 7 -16 16c0 8 7 15 16 15h1h72h1
c9 0 16 -7 16 -15c0 -9 -7 -16 -16 -16h-1h-72zM302 182h73h1c8 0 15 -7 15 -15c0 -9 -7 -16 -15 -16h-1h-73h-1c-8 0 -15 7 -15 16c0 8 7 15 15 15h1zM156 53v-1c0 34 27 61 61 61c33 0 61 -27 61 -61v0c0 -15 -11 -36 -23 -46c-9 -8 -26 -14 -38 -14h-1
c-33 0 -60 27 -60 61zM246 53c0 16 -13 29 -29 29s-29 -13 -29 -29c0 -17 13 -30 29 -30c6 0 14 3 19 7c5 5 10 15 10 22v1zM761 53c0 33 27 60 60 60s60 -27 60 -60s-27 -60 -59 -61c-12 0 -29 7 -39 14c-12 10 -22 31 -22 47v0zM851 53c-1 15 -14 27 -29 27
c-16 0 -29 -12 -30 -27v-1c0 -7 5 -17 11 -22c4 -4 13 -7 19 -7c16 0 29 13 29 30z" />
    <glyph glyph-name="f" unicode="f" horiz-adv-x="894" 
d="M585 538c-1 2 -2 5 -2 8c0 8 7 15 15 15c6 0 12 -3 14 -8l10 -20c32 -6 60 -16 82 -32l22 30c3 4 9 8 14 8c9 0 16 -7 16 -16c0 -3 -2 -8 -4 -11l-25 -32c17 -20 27 -46 34 -77c2 2 6 3 8 3c9 0 16 -7 16 -16c0 -1 0 -4 -1 -5l-16 -46v-12c0 -12 -1 -24 -1 -36
c6 -10 12 -20 18 -31l22 7c1 0 3 1 5 1c8 0 15 -7 15 -16c0 -7 -5 -13 -11 -15l-17 -6c11 -24 23 -66 25 -93l13 -6v-1c5 -2 9 -8 9 -13c0 -9 -8 -16 -16 -16c-2 0 -6 1 -7 2c-7 -36 -25 -61 -53 -85l19 -25c2 -2 4 -7 4 -10c0 -9 -7 -16 -16 -16c-4 0 -10 3 -13 7l-19 24
c-20 -15 -56 -35 -79 -46c-3 -4 -5 -8 -8 -12l6 -33v-1c0 -9 -7 -16 -16 -16c-7 0 -14 6 -15 12v1c-29 -37 -62 -65 -98 -74c-7 -2 -20 -3 -28 -4c2 -2 4 -6 4 -10c0 -9 -7 -16 -16 -16c-5 0 -11 3 -13 7l-16 24c-36 8 -74 26 -112 50h-23l1 -35v-1c0 -8 -7 -15 -15 -15h-1
c-8 0 -15 7 -15 15l-1 37c-72 5 -131 25 -160 72l-18 -3h-3c-8 0 -15 7 -15 15c0 13 11 15 22 18c-11 29 -16 65 -16 104c0 12 1 25 1 37l-2 5l-23 -29c-3 -3 -9 -6 -13 -6c-9 0 -16 7 -16 15c0 4 2 9 4 11l30 37l1 1c-23 43 -38 87 -38 126c0 37 15 66 34 87l-17 3
c-8 0 -15 7 -15 15c0 9 7 16 16 16h3l41 -6h1c18 15 49 36 70 47l-8 24c0 2 -1 4 -1 6c0 8 7 15 16 15c7 0 13 -5 15 -12l6 -18l1 1c25 41 54 78 86 101c-2 2 -2 5 -2 8c0 8 7 15 15 15c6 0 11 -3 14 -7c14 7 32 12 52 12c45 0 96 -21 146 -53h19c11 0 28 -1 39 -1zM572 507
c45 -35 95 -83 131 -127c2 0 4 1 6 1c8 0 15 -7 15 -16c0 -3 -1 -6 -2 -9c5 -6 10 -13 14 -19c-2 98 -28 143 -104 162c-2 -5 -9 -9 -14 -9c-9 0 -14 8 -17 15c-9 1 -19 2 -29 2zM354 557c2 -3 5 -8 5 -12c0 -9 -7 -16 -16 -16c-3 0 -8 2 -10 4l-9 9
c-18 -14 -43 -39 -56 -57c55 21 146 43 204 50c-34 17 -65 26 -91 26h-1c-8 0 -19 -2 -26 -4zM124 282c0 8 8 15 16 15h4c11 33 31 85 46 117c-55 -32 -91 -68 -101 -103c-2 -7 -4 -19 -4 -26c0 -2 1 -6 1 -8l28 -14c4 -2 8 -8 8 -14c0 -8 -7 -15 -16 -15c-5 0 -9 3 -13 5
c5 -18 16 -45 24 -61c4 24 12 64 19 87c-6 4 -12 9 -12 17zM173 -38c23 -30 71 -45 133 -49h1c-12 9 -24 19 -36 29c-4 -6 -8 -15 -18 -15c-8 0 -15 7 -15 16c0 2 1 6 2 8l7 13c-37 34 -76 77 -106 118c1 -37 6 -68 16 -92c2 0 4 1 7 1c9 0 16 -7 16 -16c0 -5 -4 -10 -7 -13
zM528 -140c28 8 58 33 86 70l-2 1c-54 -20 -144 -41 -201 -47c10 -5 27 -12 38 -16c2 6 9 11 15 11c5 0 10 -3 13 -7l8 -13c5 -1 13 -1 18 -1c7 0 18 1 25 2zM573 -49c-5 3 -11 8 -11 15c0 9 7 16 16 16c1 0 4 -1 6 -2l30 -15l30 12c19 35 43 93 55 130c-12 2 -22 5 -22 17
c0 9 7 16 15 16c1 0 2 0 2 -1l14 -1c11 39 23 105 27 146c-11 17 -23 34 -37 52l-15 -13c-3 -3 -7 -4 -10 -4c-9 0 -16 7 -16 15c0 5 3 10 6 12l16 14c-42 51 -105 109 -160 147c-70 -4 -154 -22 -211 -41l27 -17c4 -3 7 -9 7 -14c0 -8 -7 -15 -16 -15c-2 0 -6 1 -8 2
l-44 28c-1 0 -3 1 -3 2c-12 -4 -22 -9 -33 -13c-24 -44 -52 -113 -66 -161l31 -22c5 -2 9 -8 9 -14c0 -8 -7 -16 -16 -16c-3 0 -8 3 -11 5l-22 16c-8 -31 -17 -82 -20 -113c31 -47 79 -104 119 -141l9 16c2 5 9 9 14 9c9 0 16 -7 16 -16c0 -2 -1 -6 -2 -8l-13 -23
c20 -18 55 -44 77 -59c71 3 153 20 210 39zM789 99c2 5 3 15 4 21h-1c-4 2 -8 8 -8 14c0 5 3 11 8 13c-4 22 -15 56 -24 76c-3 1 -7 2 -9 4c-4 -26 -13 -68 -20 -94l13 -1c7 -1 13 -8 13 -16s-7 -15 -15 -15h-3l-17 2c-9 -29 -27 -75 -39 -102c52 30 88 64 98 98z" />
    <glyph glyph-name="g" unicode="g" horiz-adv-x="1031" 
d="M969 -78c9 0 15 -8 15 -16c0 -2 -1 -6 -2 -8c-2 -4 -59 -90 -224 -90h-17c-168 6 -297 82 -469 83h-1c-155 0 -195 -79 -197 -82c-2 -5 -8 -8 -13 -8c-9 0 -16 7 -16 15c0 2 1 5 1 6c2 4 35 70 146 93v94c0 177 89 318 258 318h45v23c-4 2 -62 33 -93 85c-1 2 -2 6 -2 8
c0 9 7 16 16 16c4 0 10 -4 13 -8c19 -31 51 -55 68 -66c1 8 2 17 3 25c-51 46 -70 71 -94 140c0 1 -1 3 -1 4c0 8 7 16 16 16c6 0 12 -5 14 -10c20 -56 36 -79 73 -114c2 9 4 17 7 26c-17 16 -59 68 -73 181c0 1 -1 1 -1 2c0 9 7 16 16 16c8 0 15 -7 16 -14
c3 -25 12 -64 20 -87l11 -27c6 -12 16 -29 24 -39c4 8 8 16 13 24c-12 19 -47 86 -47 165c0 19 -1 51 19 51c8 0 16 -7 16 -16c0 -10 -3 -25 -3 -35s1 -25 3 -35l10 -48c5 -15 14 -38 21 -51c6 8 12 15 18 23c-6 15 -26 68 -26 128c0 19 2 39 7 59c2 6 9 11 15 11
c9 0 16 -7 16 -15c0 -1 0 -3 -1 -5c-4 -16 -6 -34 -6 -50c0 -42 11 -80 19 -102c6 7 12 13 19 19c-4 12 -12 44 -12 82c0 19 -1 71 22 71c9 0 16 -7 16 -15c0 -2 0 -3 -1 -5c-4 -17 -6 -34 -6 -50c0 -24 4 -46 7 -60c7 5 13 11 21 16c-3 11 -5 30 -5 42c0 16 4 43 10 59
c2 5 8 10 14 10c9 0 16 -7 16 -16c0 -1 0 -3 -1 -4c-4 -13 -8 -36 -8 -50c0 -6 1 -15 2 -21c7 5 14 10 22 15c0 2 1 5 1 7c0 17 6 56 25 56c9 0 16 -7 16 -15c0 -9 -6 -18 -8 -26h2c27 16 56 31 87 46c2 0 4 1 6 1c9 0 16 -7 16 -16c0 -5 -4 -11 -8 -14
c-20 -9 -38 -18 -55 -27c8 -1 21 -2 29 -2h3c8 0 15 -7 15 -15c0 -9 -7 -16 -15 -16h-4h-3c-19 0 -50 4 -68 9c-7 -4 -15 -9 -22 -13c25 -11 66 -19 93 -19c9 0 16 -7 16 -16c0 -8 -7 -15 -16 -15c-64 1 -106 20 -123 29c-7 -5 -13 -9 -19 -14c20 -12 64 -32 142 -35
c8 0 15 -7 15 -15c0 -9 -7 -16 -16 -16v0v0c-97 3 -147 31 -167 45c-7 -5 -13 -11 -19 -17c6 -5 18 -12 26 -16l69 -22c24 -5 62 -10 86 -12c8 -1 14 -8 14 -16s-7 -15 -15 -15h-1c-128 9 -181 40 -201 59c-6 -7 -11 -13 -17 -19c13 -11 65 -49 183 -63c8 -1 14 -8 14 -15
c0 -9 -7 -16 -15 -16h-2c-122 14 -180 53 -199 68c-4 -6 -8 -13 -12 -20c39 -28 109 -56 157 -63c7 -1 13 -8 13 -16s-7 -15 -15 -15h-3c-50 7 -125 37 -167 66c-3 -8 -7 -15 -9 -23c6 -5 38 -30 117 -52c6 -2 11 -9 11 -15c0 -9 -7 -16 -15 -16c-1 0 -3 0 -5 1
c-65 18 -100 38 -118 50c-2 -9 -4 -18 -5 -27c28 -19 60 -30 85 -37c7 -2 12 -8 12 -15c0 -9 -7 -16 -16 -16c-1 0 -3 0 -4 1c-23 6 -60 20 -81 32c-1 -15 -2 -30 -2 -44h106c8 0 16 -6 16 -15c0 -18 -8 -46 -31 -63c0 -39 -11 -146 -47 -182c-6 -7 -19 -13 -29 -13h-14v-76
c0 -8 -7 -15 -16 -15c-8 0 -15 7 -15 15v76h-43c-8 -3 -47 -21 -47 -91v-55c115 -22 223 -68 352 -68c148 0 197 74 198 75c2 4 8 7 13 7zM270 -78h2c29 0 74 -4 102 -8v49c0 104 69 122 76 122h91c2 0 5 2 7 4c22 22 35 101 38 147c-4 0 -11 -1 -15 -1h-151
c-9 0 -16 7 -16 16s7 16 16 16h151c28 0 39 16 43 29h-164c-139 0 -226 -110 -226 -287v-89c12 1 33 2 46 2z" />
    <glyph glyph-name="h" unicode="h" horiz-adv-x="772" 
d="M309 372c-25 11 -51 31 -67 51h-21c2 -20 8 -53 12 -73c1 -1 1 -3 1 -4c0 -5 -3 -11 -8 -13l-76 -46c-2 -1 -6 -2 -8 -2c-4 0 -9 2 -11 5c-3 3 -32 37 -33 131v1h-31c-8 0 -15 6 -15 15v105c0 8 7 15 15 15h148c1 0 3 1 4 1c0 0 2 -1 3 -1h87v10v5v181c1 9 8 16 16 16h4
l113 -1h3c9 0 16 -7 16 -16v0c0 -74 0 -160 1 -195h93h148c8 0 15 -7 15 -15v-105c0 -8 -7 -15 -15 -15h-31v-1c-1 -94 -30 -128 -33 -131c-2 -3 -7 -5 -11 -5c-3 0 -6 1 -8 2l-76 46c-4 3 -8 8 -8 13c0 1 1 3 1 4c5 20 12 53 14 73h-22c-16 -20 -40 -39 -65 -50
c0 -138 1 -500 1 -532c15 -3 34 -5 50 -5c75 0 100 44 100 44c2 5 8 8 13 8c9 0 16 -7 16 -16c0 -2 -1 -5 -2 -6c-1 -3 -34 -62 -127 -62c-95 0 -158 56 -251 56v0c-79 0 -105 -51 -105 -51c-3 -5 -9 -9 -14 -9c-9 0 -16 7 -16 16c0 2 1 5 2 7s35 69 133 69v0
c13 0 33 -2 45 -4v6v478zM341 542c4 -31 19 -45 43 -45c35 0 45 20 46 56c0 30 -1 111 -1 184l-88 1v-196zM147 321l54 32c-4 19 -9 50 -11 70l-61 -1v-1c0 -55 11 -86 18 -100zM83 452l140 2c-9 19 -18 51 -19 72h-121v-74zM341 -119c32 -9 62 -22 93 -31
c0 62 -1 376 -1 513c-13 -3 -34 -6 -47 -6h-1c-12 0 -32 2 -44 5v-481zM446 399c47 19 86 60 91 128h-79c-6 -30 -23 -61 -74 -61c-23 0 -59 9 -71 60h-78c5 -69 45 -110 93 -128c2 -1 4 -1 5 -2c14 -5 37 -8 52 -8v0c16 0 41 4 56 9c1 1 3 2 5 2zM642 421v1l-60 1
c-2 -20 -8 -51 -13 -70l54 -32c7 14 18 45 19 100zM688 452v74h-120c-1 -21 -10 -53 -19 -72z" />
    <glyph glyph-name="i" unicode="i" 
d="M978 -78c9 0 16 -8 16 -16c0 -2 -1 -6 -2 -8c-3 -4 -60 -90 -224 -90c-179 0 -308 82 -486 83h-2c-154 0 -194 -79 -196 -82c-2 -5 -8 -9 -14 -9c-9 0 -16 7 -16 16c0 2 1 5 2 7c2 4 49 99 224 99h2c30 0 79 -4 108 -9c9 73 38 121 74 121h48c-35 6 -64 40 -64 75
c0 43 34 77 77 77c42 0 76 -34 76 -77c0 -35 -29 -69 -64 -75h48c48 0 74 -109 76 -184c32 -6 74 -10 107 -10c148 0 197 74 197 75c3 4 9 7 13 7zM525 64c24 0 44 22 44 45c0 25 -20 45 -45 45c-24 0 -44 -20 -45 -45c1 -25 21 -45 45 -45h1zM421 -93
c71 -15 139 -35 208 -51c-1 29 -9 74 -18 102c-12 36 -24 45 -26 45h-121c-11 0 -35 -29 -43 -96zM464 526c-9 1 -16 8 -16 16c0 40 12 72 37 94c28 25 66 30 86 31c4 21 16 55 27 74c25 39 63 59 111 59c73 0 108 -38 124 -69c7 -14 14 -37 16 -53c35 -2 61 -15 78 -37
c17 -21 21 -47 21 -68c0 -19 -4 -34 -4 -35c-2 -6 -8 -12 -15 -12h-465zM916 574c0 48 -28 74 -82 74c-8 0 -15 7 -15 15v0c0 4 -2 106 -110 106c-83 0 -104 -76 -109 -120c0 -8 -7 -14 -15 -14h-2h-8c-14 0 -47 -2 -70 -23c-14 -13 -22 -31 -25 -54h435c1 4 1 10 1 16z
M67 375c-9 0 -16 7 -16 16v0c0 34 20 98 95 106c6 38 33 91 109 91h2c34 0 77 -23 96 -52c23 -35 36 -83 36 -145v0c0 -9 -7 -16 -16 -16h-306zM161 466c-56 0 -72 -38 -77 -59h273c-4 94 -41 150 -102 150c-78 0 -78 -72 -78 -75c0 -9 -8 -16 -16 -16zM569 482
c0 7 7 15 16 15c6 0 13 -5 15 -11l151 -576c1 -1 1 -2 1 -4c0 -8 -7 -15 -16 -15c-7 0 -13 5 -15 11l-151 576c-1 1 -1 2 -1 4zM449 486c1 6 8 11 15 11c9 0 16 -7 16 -15c0 -2 -1 -3 -1 -4l-134 -509c-2 -6 -8 -12 -15 -12c-9 0 -16 7 -16 16c0 1 0 3 1 4z" />
    <glyph glyph-name="j" unicode="j" horiz-adv-x="1030" 
d="M969 -78c9 0 15 -8 15 -16c0 -2 -1 -6 -2 -8c-2 -4 -59 -90 -224 -90h-17c-173 7 -295 83 -470 83c-155 0 -195 -79 -197 -82c-2 -5 -8 -8 -13 -8c-9 0 -16 7 -16 15c0 2 1 5 1 6c2 4 39 79 169 97c-60 59 -109 175 -110 260c0 187 122 281 128 285c2 2 6 3 9 3
c9 0 16 -7 16 -16c0 -1 -1 -3 -1 -5c-14 -42 -20 -75 -20 -101c0 -31 8 -51 17 -63c10 -14 32 -26 49 -27c29 1 53 26 53 60c0 26 -15 57 -15 85c0 106 108 220 132 244c26 26 33 60 33 87c0 33 -8 45 -8 53c0 9 7 16 16 16c4 0 9 -2 11 -5c10 -10 96 -97 96 -162v-1
c0 -19 -6 -47 -14 -64c-8 -20 -16 -40 -16 -87c0 -23 25 -105 105 -105c73 0 76 164 76 166c0 8 7 16 15 16c4 0 10 -3 12 -6c6 -7 125 -158 125 -343c0 -78 -26 -160 -74 -230c-33 -48 -101 -109 -153 -136c19 -2 39 -4 60 -4c147 0 197 73 199 76c2 4 8 7 13 7zM497 121
c0 -58 -39 -79 -103 -79c-57 0 -96 33 -117 65c-1 -3 -1 -7 -1 -10c0 -4 1 -10 1 -14c4 -35 24 -92 97 -165c1 -2 3 -4 3 -5c36 -6 70 -13 103 -22c1 0 3 1 4 1c119 0 257 119 257 196c0 81 -37 100 -90 126c-53 27 -119 60 -151 172c-2 5 -4 13 -7 17
c-10 -15 -23 -64 -23 -103c0 -59 27 -123 27 -179zM438 300c0 27 13 138 56 138c23 0 33 -32 36 -43c28 -99 83 -127 136 -153c52 -26 107 -53 107 -154c0 -48 -37 -105 -97 -152c-30 -24 -85 -53 -122 -64c28 -8 56 -14 84 -20c167 59 254 224 254 357
c0 123 -58 233 -93 288c-6 -59 -29 -152 -103 -152c-103 0 -137 102 -137 137c0 53 10 77 19 98c6 14 12 37 12 52v1c0 29 -27 70 -52 101c0 -34 -8 -77 -43 -112c-49 -49 -122 -145 -122 -223c0 -12 1 -23 5 -33c6 -20 9 -37 9 -51c0 -25 -8 -44 -17 -55
c-14 -20 -44 -36 -67 -36c-26 1 -59 18 -74 39c-16 22 -23 49 -23 81c0 17 2 34 5 53c-41 -52 -74 -148 -74 -215v-3c0 -96 45 -192 121 -257h14c20 0 39 -1 58 -3c-69 76 -85 137 -85 178c0 37 13 58 15 60c2 4 8 7 13 7c6 0 12 -5 14 -10c2 -4 29 -81 107 -81
c47 0 72 9 72 48c0 20 -6 44 -12 71c-7 33 -16 70 -16 108z" />
    <glyph glyph-name="k" unicode="k" horiz-adv-x="984" 
d="M925 -164v-3h-1v-5v-1v0l-1 -1v-1c-2 -4 -5 -6 -9 -8v0c-27 -8 -71 -15 -99 -15h-5v0c-56 0 -140 23 -188 51c-34 -21 -95 -39 -136 -39c-40 0 -100 17 -134 38c-33 -19 -91 -40 -128 -46c-18 -3 -46 -6 -64 -6v0h-5c-27 0 -71 7 -97 15h-1c-4 2 -7 5 -9 9v10
c1 5 18 76 80 147c24 28 69 65 100 83v8c0 88 64 191 143 231c0 34 10 89 21 122c33 97 83 145 96 148h6l1 -1h2l1 -1l2 -1c5 -4 56 -52 87 -145c10 -33 19 -88 19 -123v-2c76 -40 138 -142 138 -228v-5c33 -19 79 -56 103 -85c62 -72 77 -143 78 -146zM605 265
c-4 -41 -20 -105 -35 -143c41 -5 105 -22 142 -39c-3 66 -51 148 -107 182zM422 413c-8 -26 -17 -69 -18 -96c22 7 59 13 82 13c25 0 64 -7 87 -15c-1 28 -9 72 -17 98c-12 37 -41 90 -66 119c-25 -29 -55 -82 -68 -119zM486 299c-24 0 -61 -7 -83 -16
c2 -45 19 -116 37 -157c15 1 32 1 49 1c16 0 31 0 47 -1c18 41 35 110 37 155c-23 10 -62 18 -87 18zM521 94c-11 0 -21 1 -32 1c-12 0 -23 -1 -34 -1c9 -20 21 -41 33 -59c11 18 23 39 33 59zM372 268c-60 -35 -110 -119 -112 -188c38 18 104 37 146 42
c-16 39 -31 104 -34 146zM161 -167c63 0 116 16 162 40c-41 34 -82 103 -91 155c-65 -41 -121 -109 -148 -186c21 -5 56 -9 77 -9zM468 5c-17 26 -35 57 -48 86c-46 -5 -117 -25 -159 -46c7 -54 47 -123 91 -155c37 26 90 77 116 115zM486 -154h1c31 0 78 12 106 26
c-34 25 -81 71 -105 105c-25 -34 -73 -81 -106 -106c27 -14 73 -25 104 -25v0zM556 91c-14 -28 -31 -60 -48 -86c25 -37 77 -88 114 -114c43 33 83 103 89 156c-40 20 -110 40 -155 44zM753 -161c16 -2 41 -5 57 -5c22 0 57 5 78 10c-25 78 -82 146 -147 187
c-9 -53 -49 -123 -90 -157c27 -14 73 -30 102 -35z" />
    <glyph glyph-name="l" unicode="l" horiz-adv-x="762" 
d="M685 558c24 0 22 -18 22 -41c0 -122 -50 -212 -128 -256c-18 -11 -51 -21 -73 -21c-24 0 -59 13 -78 29c-67 -83 -76 -171 -76 -257v-152c36 -13 69 -24 110 -24c75 0 100 44 100 44c3 5 9 8 13 8c9 0 16 -7 16 -16c0 -2 -1 -5 -1 -6c-2 -3 -34 -62 -128 -62
c-95 0 -158 56 -250 56h-1c-79 0 -105 -51 -105 -51c-2 -6 -9 -10 -14 -10c-9 0 -16 7 -16 16c0 2 1 6 2 8s35 69 133 69h1c41 0 76 -10 109 -21v141c-1 45 -24 96 -63 142c-14 -10 -40 -18 -57 -19c-27 0 -54 13 -78 37c-65 66 -71 152 -71 182c0 25 9 25 36 25
c45 0 150 -10 194 -100c7 -14 10 -29 10 -43c0 -25 -8 -47 -13 -59c16 -18 37 -50 48 -71c9 62 31 126 81 187c-11 18 -21 49 -21 70c0 35 15 68 47 98c95 91 221 97 251 97zM255 203c3 9 5 21 5 33c0 10 -1 20 -6 30c-37 75 -132 82 -169 82h-1c1 -30 9 -101 62 -154
c20 -21 40 -27 56 -27c14 0 26 5 34 10c-11 11 -31 29 -44 38c-4 3 -7 9 -7 14c0 8 7 15 15 15c4 0 8 -1 11 -4c12 -9 32 -26 44 -37zM564 288c102 59 112 184 112 233v5c-38 -1 -142 -12 -221 -88c-25 -24 -37 -49 -37 -75c0 -13 5 -34 12 -45c18 17 49 43 69 57
c3 2 7 4 10 4c9 0 16 -7 16 -16c0 -5 -4 -11 -8 -13c-20 -14 -50 -40 -68 -58c7 -5 27 -21 58 -21c16 0 36 5 57 17z" />
    <glyph glyph-name="m" unicode="m" horiz-adv-x="744" 
d="M491 -196c-89 3 -153 56 -242 56h-1c-77 0 -104 -49 -105 -51c-2 -5 -8 -8 -13 -8c-9 0 -16 7 -16 15c0 2 0 5 1 7c2 2 35 69 133 69h1c13 -1 34 -2 46 -5v518h-226c-9 0 -16 7 -16 16v121c0 9 7 16 16 16h226v226v0c0 9 7 16 16 16h121c9 0 16 -7 16 -16v0v-226h226
c9 0 16 -7 16 -16v0v-121c0 -9 -7 -16 -16 -16h-226v-559c0 -1 -1 -3 -1 -4c12 -3 33 -6 45 -6h7c75 0 100 44 100 45c3 4 9 8 14 8c9 0 16 -7 16 -16c0 -2 -1 -5 -2 -7c-2 -3 -34 -62 -128 -62h-8zM658 437v89h-226c-9 0 -16 7 -16 16v226h-90v-226c0 -9 -7 -16 -15 -16
h-227v-90h227c9 0 16 -7 16 -15v-541c31 -8 59 -20 89 -30v571c0 9 7 16 16 16h226zM492 587v0c-8 0 -15 7 -15 15c0 4 2 9 4 11l122 122c2 2 7 5 11 5c9 0 16 -7 16 -16c0 -4 -2 -9 -5 -12l-121 -121c-3 -2 -8 -4 -12 -4zM239 591l-121 121c-3 3 -5 8 -5 11c0 9 7 16 16 16
c4 0 9 -2 11 -4l121 -122c3 -2 5 -7 5 -11c0 -8 -7 -15 -16 -15c-3 0 -8 2 -11 4zM477 360c0 9 7 16 15 16c4 0 9 -2 12 -5l121 -121c2 -2 4 -7 4 -11c0 -9 -7 -16 -15 -16c-4 0 -9 2 -11 5l-122 121c-2 3 -4 8 -4 11zM129 223v0c-9 0 -16 7 -16 16c0 4 2 9 5 11l121 121
c3 3 8 5 11 5c9 0 16 -7 16 -16c0 -3 -2 -8 -5 -11l-121 -121c-2 -3 -7 -5 -11 -5z" />
    <glyph glyph-name="n" unicode="n" horiz-adv-x="1032" 
d="M969 -78c9 0 16 -8 16 -16c0 -2 -1 -6 -3 -8c-2 -4 -59 -90 -224 -90h-17c-168 6 -297 82 -468 82h-2c-154 0 -194 -78 -196 -81c-3 -5 -9 -9 -14 -9c-9 0 -16 7 -16 15c0 2 1 5 2 7c1 4 46 94 208 100c12 164 68 285 135 285h251c46 0 80 -65 101 -120
c24 -66 40 -146 40 -209v-38c128 8 172 72 174 75c3 4 8 7 13 7zM287 -78c165 -4 295 -76 455 -82h8v38c0 59 -15 135 -38 198c-28 73 -56 99 -72 99h-250c-42 0 -92 -102 -103 -253zM515 243c-104 0 -188 84 -188 188c0 103 84 187 188 187c103 0 188 -84 188 -187
c0 -104 -85 -188 -188 -188zM584 299c22 18 40 56 40 85v0c0 60 -49 109 -109 109c-61 0 -110 -49 -110 -109c0 -61 49 -110 110 -110c21 0 52 11 69 25zM515 587v0h-1c-86 0 -156 -70 -156 -156c0 -22 8 -54 18 -73c-1 7 -2 19 -2 26c0 78 63 141 141 141s141 -63 141 -141
c0 -7 -1 -19 -3 -26c10 19 18 51 18 73c0 86 -70 156 -156 156zM696 617v0c-8 0 -15 7 -15 16c0 3 2 8 4 11l61 61c2 2 7 4 10 4c9 0 16 -7 16 -16c0 -3 -2 -8 -4 -11l-61 -60c-2 -3 -7 -5 -11 -5zM322 622l-61 60c-2 3 -4 8 -4 11c0 9 7 16 16 16c3 0 8 -2 11 -4l60 -61z
M515 648c-9 0 -16 7 -16 15v121c0 9 7 16 16 16s16 -7 16 -16v-121c0 -8 -7 -15 -16 -15zM741 421c0 9 7 16 16 16h121c8 0 16 -7 16 -16s-8 -16 -16 -16h-121c-9 0 -16 7 -16 16v0zM151 405c-8 0 -15 7 -15 16s7 16 15 16h122c8 0 15 -7 15 -16s-7 -16 -15 -16h-122z
M681 239c0 9 7 16 15 16c4 0 9 -2 12 -5l60 -60c3 -3 5 -8 5 -11c0 -9 -7 -16 -16 -16c-4 0 -8 2 -11 5l-61 60c-2 3 -4 8 -4 11zM261 190l61 61c2 2 7 4 11 4c9 0 16 -7 16 -16c0 -3 -2 -8 -5 -11l-60 -60c-3 -3 -8 -5 -12 -5c-8 0 -15 7 -15 16c0 3 2 8 4 11z" />
    <glyph glyph-name="o" unicode="o" horiz-adv-x="1029" 
d="M975 -82c4 -3 7 -9 7 -13c0 -3 -1 -6 -2 -8c-2 -4 -59 -88 -224 -88h-16c-81 3 -155 22 -226 40c-76 20 -155 40 -242 41h-1c-154 0 -195 -78 -196 -81c-3 -5 -9 -9 -14 -9c-2 0 -5 1 -7 2c-5 2 -9 8 -9 14c0 2 1 4 1 6c2 4 46 92 208 98c9 163 65 280 135 280h250
c46 0 80 -64 101 -118c24 -65 40 -143 40 -205v-37c128 7 172 70 174 73c2 4 8 7 13 7c2 0 6 -1 8 -2zM522 -121c72 -19 141 -37 219 -40h7v38c0 58 -14 133 -38 194c-27 73 -55 98 -71 98h-250c-44 0 -95 -95 -104 -249c86 -2 163 -22 237 -41zM353 601c2 2 7 3 10 3h5
l79 -26l54 79c3 4 8 7 13 7s10 -3 13 -7l54 -79l79 26h5c3 0 8 -1 10 -3c3 -3 6 -8 6 -12c0 -1 -1 -1 -1 -2l-26 -201v-1v-11v0c0 -37 -23 -85 -52 -108c-21 -17 -61 -31 -88 -31v0h-1c-76 0 -139 62 -140 138v11l-26 203v2c0 4 3 9 6 12zM583 290c22 18 40 55 40 84
c0 59 -48 107 -108 107c-59 0 -107 -48 -107 -107s47 -107 106 -108v0c21 0 52 11 69 24zM448 545l-67 22l16 -117c23 34 75 62 117 62c41 0 94 -28 117 -62l15 117l-67 -22c-1 -1 -3 -1 -5 -1c-4 0 -10 3 -13 7l-47 70l-48 -70c-2 -4 -8 -7 -13 -7c-1 0 -3 0 -5 1zM665 663
h-1c-3 0 -8 2 -11 4c-2 3 -4 8 -4 11c0 4 2 9 4 11l31 30c2 2 7 4 11 4s9 -2 11 -4c3 -3 5 -7 5 -11s-2 -8 -5 -11l-30 -30c-3 -2 -8 -4 -11 -4v0zM352 667l-31 30c-2 3 -4 7 -4 11c0 3 2 8 4 11c3 2 8 4 12 4c3 0 8 -2 11 -4l30 -30c2 -2 4 -7 4 -11c0 -3 -2 -8 -4 -11
c-3 -2 -8 -4 -11 -4c-4 0 -9 2 -11 4zM514 692c-9 0 -16 7 -16 16v0v60c0 8 7 15 16 15s16 -7 16 -15v-60v0c0 -9 -7 -16 -16 -16v0zM755 514h-1c-8 0 -15 7 -15 15c0 9 7 16 15 16h1h61h1c8 0 15 -7 15 -16c0 -8 -7 -15 -15 -15h-1h-61zM212 514h-1c-9 0 -15 7 -15 15
c0 9 6 16 15 16h1h60h1c9 0 15 -7 15 -16c0 -8 -6 -15 -15 -15h-1h-60zM261 340c-3 2 -5 7 -5 11c0 3 2 8 5 11l30 30c3 2 8 4 11 4c4 0 9 -2 11 -4c3 -3 5 -8 5 -11c0 -4 -2 -9 -5 -11l-30 -30c-2 -2 -7 -5 -11 -5c-3 0 -8 3 -11 5zM714 370c-2 2 -4 7 -4 11c0 3 2 8 4 11
c3 2 8 4 11 4c4 0 9 -2 11 -4l30 -30c3 -3 5 -8 5 -11c0 -4 -2 -9 -5 -11c-2 -2 -7 -5 -11 -5c-3 0 -8 3 -11 5z" />
    <glyph glyph-name="p" unicode="p" horiz-adv-x="1016" 
d="M955 -80c9 0 15 -7 15 -15c0 -2 -1 -6 -2 -8c-2 -4 -58 -89 -221 -89c-5 0 -11 1 -16 1c-166 5 -292 80 -462 81h-1c-154 0 -193 -80 -194 -81c-2 -5 -8 -9 -14 -9c-8 0 -15 7 -15 15c0 2 1 5 1 7c2 3 29 58 118 85v832c0 8 7 15 16 15h477v16c0 8 7 15 16 15h103
c9 0 16 -7 16 -15v-16h44c8 0 15 -7 15 -15v-885c65 21 89 57 91 59c2 4 8 7 13 7zM761 754h-73v-198l29 15c2 1 5 1 7 1s5 0 7 -1l30 -15v198zM195 723v-809c16 3 42 6 59 6v803h-59zM285 -80c168 -5 295 -81 463 -81c20 0 53 3 72 7v877h-28v-192c0 -8 -7 -15 -16 -15
c-2 0 -5 0 -7 1l-44 23l-45 -23c-2 -1 -5 -1 -7 -1c-9 0 -16 7 -16 15v0v192h-372v-803zM687 416c8 0 15 -7 15 -15v-67c0 -9 -7 -16 -15 -16h-86v-286c0 -9 -6 -16 -15 -16h-67c-9 0 -16 7 -16 16v286h-85c-8 0 -15 7 -15 16v67c0 8 7 15 15 15h85v85c0 9 7 16 16 16h67
c9 0 15 -7 15 -16v-85h86zM671 349v36h-85c-8 0 -15 7 -15 16v85h-37v-85c0 -9 -7 -16 -15 -16h-85v-36h85c8 0 15 -7 15 -15v-287h37v287c0 8 6 15 15 15h85z" />
    <glyph glyph-name="q" unicode="q" horiz-adv-x="1032" 
d="M969 -78c9 0 16 -8 16 -16c0 -2 -1 -6 -3 -8c-2 -4 -59 -90 -224 -90c-178 0 -308 82 -485 83h-2c-154 0 -194 -79 -196 -82c-3 -5 -9 -9 -14 -9c-9 0 -16 7 -16 16c0 2 1 5 2 6c1 4 49 100 224 100h3c-18 20 -102 123 -104 126c-2 2 -4 7 -4 10c0 8 7 15 16 15h166v409
c0 8 7 15 15 15v0h136v58c-41 12 -60 62 -60 109c0 79 68 131 71 133c2 2 6 3 9 3c9 0 16 -7 16 -16v0c0 -87 65 -61 65 -144c0 -29 -23 -79 -69 -87v-56h135c9 0 16 -7 16 -15v-408h166c9 -1 16 -8 16 -16c0 -3 -2 -7 -3 -10c-3 -3 -124 -163 -146 -192l-11 -14
c18 -1 35 -2 54 -2c147 0 196 72 198 75c3 4 8 7 13 7zM470 664c0 -40 16 -81 49 -81c32 0 49 40 49 57c0 27 -10 35 -24 48s-31 29 -37 62c-17 -18 -37 -49 -37 -86zM379 375v-90h271v90h-271zM650 466h-271v-59h271v59zM379 254v-180h271v180h-271zM320 -80
c125 -10 230 -53 348 -73c19 23 93 121 148 195h-602c45 -55 90 -109 101 -118c1 -1 4 -2 5 -4z" />
    <glyph glyph-name="r" unicode="r" horiz-adv-x="676" 
d="M339 373c-79 0 -129 79 -129 152c0 116 75 162 115 233c3 5 9 9 14 9s12 -4 14 -9c41 -71 115 -117 115 -233c0 -73 -49 -152 -129 -152zM339 721c-38 -56 -97 -103 -97 -196c0 -58 37 -121 97 -121s98 63 98 121c0 92 -59 140 -98 196zM377 435c-9 0 -15 7 -15 15
c0 3 1 7 2 9c17 25 23 50 23 72c0 50 -23 66 -23 80c0 9 7 16 15 16c5 0 10 -3 13 -6c1 -3 26 -39 26 -90c0 -27 -7 -58 -28 -90c-2 -3 -8 -6 -13 -6zM578 -111c9 0 16 -8 16 -16c0 -2 -1 -5 -2 -7c-1 -3 -34 -61 -127 -61h-8c-89 2 -152 55 -242 55v0
c-78 0 -104 -50 -105 -52c-3 -4 -9 -7 -14 -7c-8 0 -15 7 -15 15c0 2 0 5 1 6c11 21 38 45 59 54c6 132 48 227 102 227h60c-41 14 -73 60 -73 103c0 60 48 108 108 108s109 -48 109 -108c0 -43 -33 -89 -73 -103h55c68 0 105 -169 109 -249c9 6 21 17 27 26c2 5 8 9 13 9z
M261 205c0 -42 35 -77 77 -77c43 0 77 35 77 77c0 43 -34 78 -77 78s-77 -35 -77 -78zM215 -109c96 0 158 -55 250 -55c12 0 31 2 42 5c-3 60 -14 119 -32 165c-18 48 -38 66 -46 66h-186c-25 0 -63 -66 -70 -185c11 2 29 4 41 4h1v0zM458 313c-8 0 -16 7 -16 15
c0 4 2 9 5 12l60 60c3 2 7 4 11 4c8 0 15 -7 15 -16c0 -3 -1 -8 -4 -10l-60 -61c-2 -2 -7 -4 -11 -4zM488 252c-8 0 -15 7 -15 16c0 5 3 12 8 14l121 60c2 1 4 2 6 2c9 0 16 -7 16 -16c0 -5 -4 -11 -8 -14l-121 -60c-2 -1 -5 -2 -7 -2zM609 223h1c8 0 16 -7 16 -15
c0 -9 -8 -16 -16 -16h-1h-121h-1c-8 0 -15 7 -15 16c0 8 7 15 15 15h1h121zM542 103l-61 30c-5 3 -9 9 -9 15c0 8 7 15 16 15c2 0 5 -1 7 -2l61 -30c5 -2 9 -9 9 -14c0 -9 -7 -16 -16 -16c-2 0 -5 1 -7 2zM205 317l-60 61c-3 2 -5 8 -5 11c0 9 7 16 16 16c3 0 9 -2 11 -5
l61 -60c2 -3 5 -8 5 -12c0 -9 -7 -16 -16 -16c-4 0 -9 3 -12 5zM59 314c-5 3 -8 9 -8 14c0 9 7 16 15 16c2 0 5 -1 7 -2l120 -60c5 -2 10 -9 10 -14c0 -9 -7 -16 -16 -16c-2 0 -6 1 -8 2zM202 208c0 -9 -7 -16 -16 -16v0h-120h-1c-9 0 -16 7 -16 16c0 8 7 15 16 15h1h120v0
c9 0 16 -7 16 -15zM179 161c2 1 6 2 8 2c9 0 16 -7 16 -15c0 -6 -4 -12 -10 -15l-60 -30c-2 -1 -5 -2 -8 -2c-8 0 -15 7 -15 16c0 5 4 12 9 14z" />
    <glyph glyph-name="s" unicode="s" horiz-adv-x="1095" 
d="M416 187c0 -36 -29 -65 -64 -65c-36 0 -65 29 -65 65s29 65 65 65c35 0 64 -29 64 -65zM352 153c18 1 33 16 33 34s-15 33 -33 33c-19 0 -34 -15 -34 -33c0 -19 15 -34 34 -34v0zM794 604c0 36 29 65 65 65s65 -29 65 -65c0 -35 -29 -64 -65 -64s-65 29 -65 64zM892 604
c0 19 -15 34 -33 34c-19 0 -34 -15 -34 -34c0 -18 15 -33 34 -33c18 0 33 15 33 33zM969 546c39 -64 71 -178 71 -253c0 -272 -221 -493 -493 -493c-271 0 -492 221 -492 493c0 271 221 492 492 492c77 0 193 -33 258 -73c15 7 39 14 55 14c66 0 120 -54 120 -120v-1
c-1 -16 -5 -43 -11 -59zM860 694c-50 0 -89 -43 -89 -89c0 -41 57 -156 90 -219c28 48 88 159 88 220v0c0 49 -40 88 -89 88zM636 307c-14 0 -29 -1 -43 -1c-24 0 -48 3 -65 20c-18 17 -26 44 -26 86c0 41 28 57 59 75c50 29 118 68 120 248c-36 10 -96 19 -134 19
c-114 0 -267 -69 -343 -153c42 -20 72 -34 72 -86c0 -19 -4 -44 -12 -77c-9 -34 -12 -51 -12 -63c0 -11 3 -16 8 -25c10 -16 22 -43 28 -62c16 11 46 20 65 20c58 0 111 -46 119 -103c15 10 42 18 60 18c31 0 69 -19 86 -39c1 -2 2 -3 3 -5v0c4 -9 6 -19 6 -29
c0 -40 -26 -80 -38 -114c4 0 9 2 13 3c77 26 79 163 79 164c0 71 -5 104 -45 104zM353 277c-49 0 -89 -40 -89 -89c0 -42 57 -156 90 -219c28 48 88 159 88 219c0 49 -40 89 -89 89zM221 374c0 23 24 114 24 141c0 35 -14 39 -46 54c-5 2 -10 5 -16 7
c-54 -69 -98 -196 -98 -284c0 -254 207 -461 462 -461v0v0v0c255 0 462 207 462 462c0 62 -24 159 -53 214c-31 -77 -80 -155 -83 -160c-2 -4 -8 -7 -13 -7v0c-5 0 -11 3 -13 8c-11 19 -106 193 -106 258c0 28 16 67 37 86c-18 11 -48 25 -67 32c-4 -188 -82 -234 -135 -264
c-29 -17 -44 -26 -44 -48c0 -54 12 -75 60 -75c14 0 29 1 44 1c34 0 56 -16 67 -48c8 -25 8 -56 8 -87c0 -6 -1 -161 -100 -194c-7 -2 -19 -5 -28 -5c-14 0 -26 11 -26 26c0 13 8 29 17 49c9 22 22 50 22 72c0 5 -1 10 -2 14c-11 10 -34 27 -63 27c-18 0 -38 -7 -60 -27
c-15 -90 -101 -229 -105 -235c-2 -4 -8 -8 -13 -8v0c-5 0 -11 4 -13 8c-11 20 -107 194 -107 258c0 25 13 59 29 78c-11 39 -21 56 -28 68c-8 14 -13 24 -13 40zM544 -77c-23 0 -60 4 -82 10c-7 2 -12 8 -12 15c0 9 7 16 16 16c1 0 2 0 3 -1c21 -5 54 -9 75 -9
c58 0 141 29 187 64c68 53 109 130 118 221l-35 -35c-2 -2 -7 -4 -11 -4c-8 0 -15 6 -15 15c0 4 2 8 4 11l60 60c3 2 7 4 11 4h1h2c7 0 13 -5 15 -11l53 -53c2 -3 5 -7 5 -11c0 -9 -7 -16 -16 -16c-3 0 -8 2 -11 5l-32 32c-9 -99 -54 -185 -130 -243
c-50 -39 -142 -70 -206 -70z" />
    <glyph glyph-name="t" unicode="t" horiz-adv-x="1067" 
d="M999 314c9 0 16 -7 16 -15v-61c0 -8 -7 -15 -16 -15h-640v-46c0 -8 -7 -15 -16 -15c-8 0 -15 7 -15 15v0l3 238c0 5 4 11 8 14c2 1 152 80 202 105c14 7 19 15 19 21c0 10 -16 9 -30 2l-203 -102c-2 -1 -5 -2 -7 -2h-1h-153c-21 0 -60 -49 -60 -142v-133
c0 -8 -7 -15 -15 -15s-15 7 -16 15v133c0 107 47 174 91 174h45c-33 12 -60 50 -60 86c0 43 35 84 77 90v121c0 8 7 15 16 15h694h1c8 0 15 -7 15 -15v-468h45zM183 571c0 -34 27 -61 60 -61c34 0 61 27 61 61c0 33 -27 60 -61 60c-33 0 -60 -27 -60 -60zM592 555
c0 -21 -14 -38 -37 -49v0c-43 -22 -161 -84 -193 -101l-1 -91h562v452h-663v-105c42 -7 76 -47 76 -90c0 -36 -27 -74 -61 -86h41l200 100c11 6 23 9 33 9c24 0 43 -18 43 -39zM983 254v29h-623v-29h623zM969 -78c8 0 15 -8 15 -16c0 -2 -1 -6 -2 -8c-3 -4 -60 -90 -224 -90
c-178 0 -306 82 -484 83h-1c-156 0 -196 -81 -196 -82c-2 -5 -9 -10 -14 -10c-9 0 -16 7 -16 16c0 2 1 5 2 7c1 3 23 48 91 76c10 69 39 114 73 114h26c-23 12 -41 42 -41 67c0 42 34 76 76 76s76 -34 76 -76c0 -25 -18 -55 -40 -67h24c25 0 47 -24 61 -64
c14 40 36 64 61 64h49c-35 6 -64 40 -64 75c0 42 34 76 76 76s76 -34 76 -76c0 -35 -28 -69 -63 -75h47c25 0 47 -25 60 -64c14 39 36 64 61 64h48c-35 6 -63 40 -63 75c0 42 34 76 76 76s76 -34 76 -76c0 -35 -29 -69 -64 -75h47c39 0 71 -62 75 -146c44 21 61 47 62 49
c3 4 9 7 14 7zM714 87c0 -24 20 -44 45 -44c24 0 44 20 44 44c0 25 -20 45 -44 45c-25 0 -45 -20 -45 -45zM472 87c0 -24 21 -44 45 -44c25 0 45 20 45 44c0 25 -20 45 -45 45c-24 0 -45 -20 -45 -45zM274 124c-24 0 -45 -20 -45 -44c0 -25 21 -45 45 -45c25 0 45 20 45 45
c0 24 -20 44 -45 44zM269 -78c29 0 73 -4 102 -8c-9 46 -27 67 -37 67h-121c-10 0 -29 -21 -39 -71c26 6 68 12 95 12zM456 -19c-11 0 -30 -24 -40 -75c70 -15 136 -36 205 -50c-3 81 -32 125 -44 125h-121zM742 -160c6 0 14 -1 19 -1c28 0 74 7 101 15
c-2 82 -31 127 -44 127h-121c-4 0 -15 -9 -26 -32c-12 -27 -18 -62 -19 -100c25 -4 65 -8 90 -9z" />
    <glyph glyph-name="u" unicode="u" horiz-adv-x="1017" 
d="M955 -80c9 0 15 -7 15 -15c0 -3 -1 -6 -2 -9c-2 -3 -58 -88 -221 -88c-176 0 -303 81 -478 81h-1c-152 0 -192 -77 -194 -80c-2 -5 -8 -9 -14 -9c-8 0 -15 7 -15 15c0 2 1 5 2 7c1 4 41 85 184 97c12 56 38 91 68 91h48c-35 5 -63 39 -63 74c0 20 13 46 28 59
c-5 69 -30 104 -43 104h-119c-15 0 -44 -46 -44 -133c0 -9 -7 -16 -16 -16c-8 0 -15 7 -15 16c0 93 32 164 75 164h47c-34 6 -63 39 -63 74c0 42 34 75 75 75c5 0 12 -1 17 -2c8 73 37 121 72 121h48c-34 6 -62 40 -62 75c0 41 33 75 75 75s75 -34 75 -75
c0 -35 -28 -69 -62 -75h46c35 0 60 -58 70 -119h39c10 58 34 119 69 119h48c-34 6 -62 40 -62 75c0 41 33 75 75 75s75 -34 75 -75c0 -35 -28 -69 -62 -75h46c35 0 64 -48 72 -121c5 1 13 2 18 2c41 0 75 -33 75 -75c0 -35 -28 -68 -62 -74h46c43 0 76 -71 76 -164
c0 -9 -7 -16 -16 -16c-8 0 -15 7 -15 16c0 87 -29 133 -44 133h-120c-13 0 -37 -35 -43 -104c16 -13 29 -39 29 -59c0 -35 -28 -68 -63 -74h47c47 0 75 -107 75 -165v-3c110 12 149 68 151 71c2 4 8 7 13 7zM657 576c24 0 44 22 44 44c0 25 -20 45 -44 45s-44 -20 -44 -44
c0 -25 20 -45 44 -45v0zM359 576c24 0 44 22 44 44c0 25 -20 45 -44 45c-25 0 -44 -20 -44 -44c0 -25 19 -45 44 -45v0zM657 40c24 0 44 21 44 44c0 24 -20 44 -44 44s-44 -20 -44 -44c0 -25 20 -44 44 -44v0zM850 352c0 25 -20 44 -44 44v0c-24 0 -44 -19 -44 -44
c0 -24 20 -44 44 -44s44 20 44 44zM576 218c36 0 65 40 65 89s-29 89 -65 89h-136c-36 0 -66 -40 -66 -89s30 -89 66 -89h39h1c3 0 5 -1 7 -2l65 -44v31c0 9 7 15 15 15h9zM210 308c24 0 44 21 44 44c0 24 -20 44 -44 44c-25 0 -45 -19 -45 -44c0 -24 20 -44 45 -44v0z
M359 40c24 0 44 21 44 44c0 24 -20 44 -44 44c-25 0 -44 -20 -44 -44c0 -25 19 -44 44 -44v0zM263 -80h6c69 0 131 -12 190 -27c-8 60 -30 86 -41 86h-119c-9 0 -26 -19 -36 -59zM491 -115c11 -3 22 -5 33 -8c6 78 36 133 74 133h47c-35 5 -64 38 -64 74c0 41 34 75 76 75
c4 0 12 -1 17 -2c8 72 37 121 73 121h47c-35 6 -63 39 -63 74c0 20 13 46 28 58c-5 70 -30 106 -43 106h-119c-8 -1 -27 -33 -38 -89h16c54 0 97 -53 97 -120c0 -63 -39 -114 -89 -119v-45c0 -8 -7 -15 -16 -15c-2 0 -6 1 -8 3l-86 57h-33c-53 0 -97 53 -97 119
s44 120 97 120h17c-3 18 -12 46 -19 62c-11 22 -19 27 -20 27h-120c-13 0 -37 -35 -43 -104c16 -13 29 -40 29 -60c0 -35 -27 -68 -62 -74h47c36 0 65 -49 73 -121c4 1 11 2 16 2c41 0 75 -34 75 -75c0 -35 -28 -68 -62 -74h47c36 0 66 -51 73 -125zM554 -131
c66 -17 129 -32 207 -30v6c-1 26 -9 66 -17 90c-13 35 -25 44 -27 44h-120c-13 0 -38 -37 -43 -110zM538 338c8 0 15 -7 15 -16c0 -8 -7 -15 -15 -15h-15v-44c0 -9 -7 -16 -15 -16c-9 0 -16 7 -16 16v44h-14c-9 0 -15 7 -15 15c0 9 6 16 15 16h14v14c0 9 7 16 16 16
c8 0 15 -7 15 -16v-14h15z" />
    <glyph glyph-name="v" unicode="v" horiz-adv-x="1048" 
d="M986 -72c9 0 16 -8 16 -16c0 -2 -2 -6 -3 -8c-2 -4 -58 -89 -221 -89c-176 0 -303 81 -478 82h-1c-152 0 -192 -78 -194 -81c-2 -5 -8 -9 -14 -9c-8 0 -15 7 -15 16c0 2 1 5 2 6c1 3 17 36 66 64l159 272h-182c-8 0 -15 7 -15 16c0 34 19 96 90 104c6 37 31 90 104 90
c55 0 81 -29 93 -55l133 226c2 3 4 5 9 7v0h3h4c1 0 3 -1 4 -1h1c1 -1 5 -4 5 -6l39 -71c4 15 13 37 21 50c19 33 65 59 102 59h4c70 0 102 -37 118 -69c7 -13 13 -36 15 -51c33 -3 58 -15 74 -35c16 -22 20 -48 20 -69c0 -19 -3 -33 -3 -34c-2 -7 -9 -12 -16 -12h-248
l238 -439c40 20 56 44 57 46c2 3 8 7 13 7zM615 435c0 -1 0 -3 -1 -4l47 -86h252c1 4 1 10 1 16c0 15 -3 34 -14 49c-12 15 -33 23 -63 23c-9 0 -15 7 -15 16c0 4 -2 104 -104 104c-79 0 -98 -74 -103 -118zM368 11c41 -13 59 -49 65 -78c16 13 41 53 65 176c3 17 6 35 8 52
c-42 -66 -103 -121 -138 -150zM523 80c-19 -91 -42 -147 -70 -171c24 -5 47 -11 70 -17v188zM139 196h182l52 88c-6 28 -23 60 -73 60c-44 0 -72 -29 -74 -74c0 -9 -7 -15 -15 -15c-40 0 -65 -23 -72 -59zM403 -81c-4 41 -30 67 -73 67c-9 0 -16 7 -16 16c0 4 3 10 7 12
c2 1 202 144 202 286v181l-331 -568c27 8 73 15 102 15h5h1c29 -1 75 -5 103 -9zM763 -153c0 -2 16 -1 17 -1c31 0 78 8 107 17l-333 614v-593c69 -18 135 -35 209 -37zM233 508c-51 0 -92 41 -92 92c0 50 41 91 92 91c50 0 92 -41 92 -91c0 -51 -42 -92 -92 -92zM233 660
c-33 0 -61 -27 -61 -60c0 -34 28 -61 61 -61s61 27 61 61c0 33 -28 60 -61 60zM344 600c0 8 7 15 16 15h51c8 0 15 -7 15 -15c0 -9 -7 -16 -15 -16h-51c-9 0 -16 7 -16 16zM308 509c0 8 8 15 16 15c3 0 8 -2 11 -4l36 -36c2 -3 4 -8 4 -11c0 -9 -7 -16 -15 -16
c-4 0 -9 2 -11 5l-36 36c-3 2 -5 7 -5 11zM218 473c0 8 6 15 15 15s15 -7 15 -15v-51c0 -8 -6 -15 -15 -15s-15 7 -15 15v51zM324 675c-9 0 -16 7 -16 16c0 3 2 8 5 11l36 35c2 3 7 5 10 5c9 0 16 -7 16 -15c0 -4 -2 -9 -5 -11l-35 -36c-3 -3 -8 -5 -11 -5zM146 520
c3 3 8 5 12 5c9 0 16 -6 16 -15c0 -4 -3 -10 -6 -12l-36 -36c-2 -3 -7 -5 -11 -5c-8 0 -15 7 -15 16c0 3 2 8 4 11zM127 600c0 -9 -7 -16 -16 -16h-51c-8 0 -15 7 -15 16c0 8 7 15 15 15h51c9 0 16 -7 16 -15zM136 680l-36 36c-3 2 -5 7 -5 11c0 8 7 15 16 15
c3 0 8 -2 11 -5l36 -35c2 -3 4 -8 4 -11c0 -9 -7 -16 -15 -16c-4 0 -9 2 -11 5zM230 711c-8 0 -15 7 -15 16v50c0 9 7 16 15 16c9 0 16 -7 16 -16v-50c0 -9 -7 -16 -16 -16z" />
    <glyph glyph-name="w" unicode="w" horiz-adv-x="1032" 
d="M969 -78c9 0 16 -8 16 -15c0 -3 -1 -7 -3 -9c-2 -3 -40 -61 -143 -82v0h-2c-22 -4 -57 -8 -79 -8c-178 0 -308 82 -485 83h-2c-154 0 -194 -79 -196 -82c-3 -5 -9 -9 -14 -9c-9 0 -16 7 -16 16c0 2 1 5 2 7c1 3 35 71 150 93c4 99 22 191 51 261c30 75 70 117 113 117
h308c58 0 100 -91 121 -145c30 -81 49 -179 49 -256v-45c86 20 117 66 117 67c3 4 9 7 13 7zM273 -78c177 -1 310 -82 483 -82c14 0 37 1 51 3v50c0 73 -18 168 -47 245s-64 124 -91 124h-308c-55 0 -122 -139 -132 -342c13 2 27 2 42 2h2zM342 515c0 88 4 161 57 213
c31 32 106 69 109 70c2 1 5 2 7 2c9 0 16 -7 16 -16v0c0 -19 10 -24 41 -33c24 -7 54 -16 74 -44c36 -51 36 -124 36 -183v-12c-2 -92 -78 -167 -170 -167c-94 0 -170 76 -170 170zM374 519v-5c0 -76 62 -138 138 -138c27 0 66 14 87 31c29 23 51 71 51 107
c0 77 -62 139 -138 139c-70 0 -131 -57 -138 -126v-8v0zM421 706c-23 -23 -35 -51 -41 -84c29 34 88 62 132 62c46 0 106 -29 134 -65c-3 21 -14 53 -26 71c-28 39 -97 22 -117 71c-23 -13 -63 -36 -82 -55z" />
    <glyph glyph-name="x" unicode="x" horiz-adv-x="1031" 
d="M969 -78c9 0 15 -8 15 -16c0 -2 -1 -6 -2 -8c-3 -4 -60 -90 -224 -90c-179 0 -308 82 -486 83h-1c-155 0 -195 -79 -197 -82c-2 -5 -8 -8 -13 -8c-9 0 -16 7 -16 15c0 2 1 5 1 6c2 4 49 100 225 100h10c-16 71 -29 161 -29 233c0 52 7 95 22 115c6 9 19 15 28 15h45v191
v42c1 93 77 168 170 168c94 0 170 -76 170 -170v-1c0 -4 -1 -7 -1 -11v-219h41c13 0 29 -9 36 -21c14 -21 20 -60 20 -107c0 -98 -27 -234 -59 -316c6 -1 12 -1 18 -1h16c148 0 197 74 198 75c2 4 8 7 13 7zM544 579c-31 -31 -82 -64 -165 -80c7 -69 69 -125 138 -125
c73 0 135 59 138 131v16v4h-4c-37 0 -85 25 -107 54zM649 557c-10 29 -39 64 -65 79c-4 -10 -13 -24 -19 -32c16 -25 54 -46 84 -47zM517 653c-68 0 -129 -55 -138 -122c120 26 163 89 176 117c-10 3 -27 5 -38 5zM379 416v-131h276v131c-28 -39 -90 -71 -138 -71
s-110 32 -138 71zM284 155c0 -75 13 -166 30 -234c136 -10 249 -62 377 -77c34 81 60 222 60 317c0 39 -5 70 -15 86c-4 7 -8 7 -10 7h-424c-1 0 -2 -2 -3 -3c-8 -10 -15 -41 -15 -96z" />
    <glyph glyph-name="y" unicode="y" horiz-adv-x="1034" 
d="M971 -78c9 0 15 -8 15 -16c0 -2 -1 -6 -2 -8c-3 -4 -60 -90 -224 -90c-179 0 -308 82 -486 83h-1c-155 0 -195 -79 -197 -82c-2 -5 -8 -8 -13 -8c-9 0 -16 7 -16 15c0 10 10 21 15 27c11 153 64 310 136 310h247c33 0 64 -35 93 -103c0 40 6 74 19 91c5 7 16 13 25 13h33
v182c4 73 66 132 139 132c74 0 136 -60 139 -134v-180h29c10 0 23 -7 29 -15c14 -17 19 -51 19 -90c0 -43 -6 -93 -15 -137c1 1 8 10 16 10zM775 382c-25 -25 -65 -50 -127 -62c7 -52 54 -94 106 -94c56 0 104 46 108 102v12h-1v0c-29 0 -68 19 -86 42zM754 195
c-36 0 -85 23 -108 51v-92h216v92c-23 -28 -71 -51 -108 -51v0zM855 372c-7 20 -28 44 -46 55c-3 -6 -9 -16 -13 -21c12 -17 38 -32 59 -34zM754 442v0c-51 0 -98 -40 -106 -90c62 14 97 41 116 64c4 6 12 16 16 23c-7 2 -18 3 -26 3v0zM274 -78c92 0 172 -21 250 -42l32 -8
c-25 135 -75 250 -111 250h-247c-15 0 -39 -21 -63 -80c-18 -47 -32 -106 -39 -167c34 24 90 47 177 47h1zM744 -160h15c76 0 126 19 157 38c15 62 22 125 22 172c0 34 -4 59 -12 70c-2 3 -3 3 -4 3h-339c-4 -3 -14 -24 -14 -82c0 -54 10 -127 21 -178
c42 -11 111 -21 154 -23zM458 335v-10c-1 -75 -63 -137 -139 -137c-77 0 -139 63 -139 140v0c0 71 3 130 46 173c26 25 86 55 88 57c2 1 5 1 7 1c9 0 16 -7 16 -15v-1c0 -13 6 -16 31 -23c20 -6 45 -13 61 -36c29 -42 29 -102 29 -149zM211 336v-9c0 -59 48 -108 108 -108
c21 0 51 11 68 25c22 17 39 55 39 83c0 59 -48 107 -108 107c-54 0 -102 -43 -107 -98zM311 520c-42 -23 -81 -46 -92 -96c22 23 67 42 100 42s79 -20 102 -44c-3 13 -11 32 -18 44c-22 31 -74 17 -92 54zM486 569c-50 43 -76 91 -76 139c0 42 38 82 79 82
c25 0 49 -16 63 -27c14 11 37 27 63 27c27 0 79 -17 79 -82c0 -108 -129 -177 -135 -180c-2 -1 -5 -2 -7 -2s-5 1 -7 2c-18 10 -44 28 -59 41zM662 708c0 30 -18 49 -47 51c-20 0 -45 -21 -52 -29c-2 -2 -7 -5 -11 -5s-9 3 -11 5c-8 8 -32 29 -52 29c-23 0 -48 -26 -48 -51
c0 -49 36 -89 65 -115c12 -10 32 -25 46 -33c25 15 110 72 110 148z" />
    <glyph glyph-name="z" unicode="z" horiz-adv-x="1023" 
d="M510 638c59 0 106 -47 106 -105s-47 -105 -106 -105c-58 0 -105 47 -105 105s47 105 105 105zM510 459c41 0 75 33 75 74s-34 74 -75 74s-74 -33 -74 -74s33 -74 74 -74zM406 593c0 -8 -7 -15 -15 -15c-19 0 -27 28 -27 44c0 10 3 21 7 32c7 17 39 74 140 74
c100 0 132 -57 139 -74c4 -11 6 -21 6 -31c0 -16 -7 -45 -25 -45c-9 0 -16 7 -16 15c0 4 2 9 4 11c4 4 6 11 6 18c0 6 -1 13 -4 20c-5 13 -29 55 -111 55c-81 0 -105 -42 -110 -55c-3 -7 -5 -14 -5 -20c0 -7 3 -14 7 -18c2 -2 4 -7 4 -11zM720 459c95 0 135 -117 135 -225
c0 -84 57 -168 111 -195c5 -3 9 -9 9 -14c0 -6 -5 -12 -10 -15c-32 -12 -87 -23 -122 -23c-69 0 -125 25 -165 72c3 -58 12 -152 22 -210c12 6 28 19 36 31c2 4 8 8 13 8c9 0 16 -7 16 -16c0 -2 -1 -5 -2 -7c-1 -3 -34 -61 -126 -61h-8c-88 3 -152 55 -240 55v0
c-77 0 -103 -48 -104 -51c-3 -4 -9 -8 -14 -8c-9 0 -16 7 -16 15c0 2 1 5 2 7c12 22 41 46 64 56c6 36 16 104 21 180c-40 -47 -96 -71 -165 -71c-34 0 -89 11 -122 23c-5 3 -9 9 -9 15c0 5 4 11 9 13c53 27 111 112 111 196c0 108 40 225 135 225c67 0 108 -46 126 -82
c20 12 56 22 79 22h4h5c23 0 58 -10 78 -22c19 36 60 82 127 82zM345 144c0 101 16 169 58 213c-9 20 -39 71 -102 71c-82 0 -104 -122 -104 -194c0 -83 -48 -164 -100 -205c22 -6 58 -11 81 -11h1c76 0 132 34 166 100v26zM390 -110c94 0 156 -55 247 -55c9 0 24 2 33 3
c-12 76 -25 200 -25 276v3v27c0 201 -77 224 -135 224c-57 0 -134 -23 -134 -224v-27v-3v-3c-2 -62 -12 -162 -22 -224c10 2 25 3 34 3h1h1zM618 357c42 -44 58 -112 58 -213v-26c34 -67 91 -100 167 -100c23 0 59 5 81 11c-52 42 -100 122 -100 205c0 72 -22 194 -104 194
c-63 0 -92 -51 -102 -71z" />
    <glyph glyph-name="uni0097" horiz-adv-x="1000" 
 />
  </font>
</defs>
</svg>
